<svg xmlns="http://www.w3.org/2000/svg" width="512" height="512" style="overflow: visible;" viewBox="0 0 512 512" data-svgdocument="" id="_MHlP26Cn8fd3nMFVVlIDq" class="fl-svgdocument" x="0" y="0" xmlns:xlink="http://www.w3.org/1999/xlink"><defs id="_U79MORvUOnqXzOzcEUskH" transform="matrix(1.1004655361175537, 0, 0, 1.1004655361175537, -108.64795684814453, 76.98694610595703)" data-uid="o_ejghiajak_5"></defs><path id="_xjmEOXZU5kbPZ9J_e2sLk" d="M-254.381,292.651v-0.078h-41.062h-1.265h-41.061v0.078c-4.608,0.165-8.305,4.899-8.305,10.744   c0,2.231,0.539,4.307,1.459,6.027c0,0,1.906-1.968,4.79-3.235c4.271-1.873,8.019-2.077,9.261-2.092h25.365v-4.439   c0-0.853,0.694-1.547,1.546-1.547c0.853,0,1.547,0.694,1.547,1.547v4.439h5.398h1.265h17.076v-4.439   c0-0.853,0.691-1.547,1.544-1.547c0.853,0,1.544,0.694,1.544,1.547v4.439h13.695c1.237,0.015,4.989,0.219,9.255,2.092   c2.889,1.268,4.794,3.235,4.794,3.235c0.92-1.721,1.459-3.796,1.459-6.027C-246.075,297.551-249.778,292.817-254.381,292.651z" fill="#cf1717" transform="matrix(3.8169965744018555, 0, 0, 3.8169965744018555, 1386.1173095703125, -1040.9677734375)" data-uid="o_ejghiajak_6"></path><g id="_7IblQVCN1HFjrArLGTdXZ" transform="matrix(1.5840405225753784, 0, 0, 1.5840405225753784, -281.148193359375, -149.5143280029297)" data-uid="o_ejghiajak_7"><path id="_vgoG8qgrtfQJmT090aSPZ" d="M-265.552,340.326c-1.775-1.772-3.969-2.674-6.518-2.674c-2.475,0-4.631,0.901-6.408,2.674  c-1.778,1.772-2.679,3.926-2.679,6.409c0,2.556,0.9,4.748,2.679,6.521c1.777,1.772,3.935,2.674,6.408,2.674  c2.549,0,4.741-0.901,6.518-2.674c1.779-1.772,2.679-3.965,2.679-6.521C-262.873,344.252-263.771,342.097-265.552,340.326z   M-269.37,349.434c-0.753,0.749-1.649,1.125-2.699,1.125c-1.046,0-1.949-0.376-2.698-1.125s-1.123-1.647-1.123-2.698  c0-1.041,0.374-1.946,1.123-2.696c0.749-0.741,1.651-1.123,2.698-1.123c1.049,0,1.946,0.382,2.699,1.123  c0.75,0.75,1.119,1.655,1.119,2.696C-268.25,347.787-268.62,348.685-269.37,349.434z" fill="#083b66" transform="matrix(2.409658432006836, 0, 0, 2.409658432006836, 1056.09814453125, -563.4613037109375)" data-uid="o_ejghiajak_8"></path><path id="_UKUGJy1SwHdqsc492iVvZ" d="M-320.725,340.49c-1.774-1.734-3.929-2.616-6.405-2.616c-2.549,0-4.744,0.882-6.522,2.616  c-1.778,1.75-2.679,3.924-2.679,6.465c0,2.477,0.901,4.636,2.676,6.408c1.776,1.78,3.972,2.684,6.525,2.684  c2.481,0,4.633-0.903,6.405-2.682c1.778-1.772,2.679-3.93,2.679-6.41C-318.047,344.411-318.949,342.235-320.725,340.49z   M-324.436,349.664c-0.747,0.749-1.647,1.113-2.694,1.113c-1.051,0-1.947-0.364-2.696-1.113c-0.749-0.752-1.126-1.648-1.126-2.709  c0-1.042,0.377-1.938,1.126-2.688c0.75-0.753,1.646-1.134,2.696-1.134c1.046,0,1.947,0.381,2.694,1.134  c0.75,0.75,1.125,1.646,1.125,2.688C-323.311,348.016-323.686,348.912-324.436,349.664z" fill="#083b66" transform="matrix(2.409658432006836, 0, 0, 2.409658432006836, 1056.099853515625, -563.587646484375)" data-uid="o_ejghiajak_9"></path><path id="_o7C0xAaNe3rT3om5-d-wY" d="M-249.509,340.761l-5.904-24.042c-0.535-2.146-0.894-4.479-4.077-7.296c-2.792-2.47-7.035-2.361-8.158-2.361h-40.728  c-1.504,0-3.22,0.752-3.969,2.146l-8.618,13.49h-15.736c-3.597,0-6.518,2.682-6.518,5.994v0.96h0.015c0,0.952,0,2.844,0,2.844  l-0.002,4.236h-2.696v5.284c0,1.866,0.936,2.807,2.812,2.807h2.583c0.225-3.144,1.669-5.825,4.324-8.035  c2.661-2.206,5.639-3.311,8.934-3.311c3.3,0,6.293,1.104,8.989,3.311c2.7,2.21,4.159,4.892,4.387,8.035h28.542  c0.221-3.144,1.667-5.843,4.323-8.091c2.661-2.248,5.637-3.365,8.934-3.365c3.298,0,6.29,1.117,8.991,3.365  c2.696,2.248,4.155,4.947,4.379,8.091h6.276C-250.047,344.73-249.081,342.907-249.509,340.761z M-298.593,321.444  c0,1.421-0.709,2.136-2.138,2.136h-12.655c-0.775,0-1.167-0.387-1.167-1.158c0-0.271,0.067-0.486,0.193-0.679l4.666-8.108  c0.498-0.801,1.15-1.037,2.05-1.037h6.912c1.428,0,2.138,0.714,2.138,2.132L-298.593,321.444L-298.593,321.444z M-278.418,321.745  c0,1.019-0.821,1.84-1.837,1.84h-12.795c-1.019,0-1.838-0.821-1.838-1.84v-7.371c0-1.018,0.82-1.837,1.838-1.837h12.795  c1.017,0,1.837,0.819,1.837,1.837V321.745z M-263.703,329.194c-1.424,0-2.575-1.149-2.575-2.573c0-1.425,1.151-2.576,2.575-2.576  c1.423,0,2.576,1.151,2.576,2.576C-261.127,328.045-262.28,329.194-263.703,329.194z" fill="#083b66" transform="matrix(2.409658432006836, 0, 0, 2.409658432006836, 1056.3475341796875, -562.8773193359375)" data-uid="o_ejghiajak_10"></path></g><path id="_xjtvd-YgT5-MwmX5HN6f_" fill="#cf1717" transform="matrix(0.8077598214149475, 0, 0, 0.8077598214149475, 256.3169250488281, 380.19537353515625)" text="iRent" text-anchor="middle" font-size="100" letter-spacing="0" side="left" offset="0.5" dx="0" dy="0" space="preserve" href="" font-family="Love Ya Like A Sister" font-scale="contain" x="0" y="0" data-fl-textpath="" font-weight="400" font-style="normal" data-uid="o_ejghiajak_11" d="M-106.44140625-68.95L-106.44140625-68.95L-103.12140625-69.43Q-99.71140625-69.43 -97.75140625-65.92L-97.75140625-65.92L-97.07140625-62.79Q-97.26140625-60.94 -99.22140625-57.91L-99.22140625-57.91Q-100.49140625-56.64 -103.12140625-56.64L-103.12140625-56.64Q-109.28140625-56.64 -110.74140625-58.5L-110.74140625-58.5Q-112.21140625-60.45 -112.11140625-63.96L-112.11140625-63.96Q-112.50140625-63.96 -112.50140625-64.16L-112.50140625-64.16L-112.50140625-64.36Q-109.57140625-68.95 -106.44140625-68.95ZM-108.40140625000001-66.5L-108.40140625000001-66.5L-108.40140625000001-66.41Q-105.08140625-66.8 -105.08140625-67.29L-105.08140625-67.29L-105.56140625-67.48Q-108.40140625000001-66.99 -108.40140625000001-66.5ZM-106.74140625-63.67L-106.74140625-63.67L-106.64140625-63.67L-106.05140625-63.57L-105.86140625-63.57Q-104.78140625-63.57 -104.49140625-64.36L-104.49140625-64.36L-104.59140625-64.55L-105.76140625-64.55Q-106.54140625-64.55 -106.74140625-63.67ZM-99.61140625-64.55L-99.71140625-64.55L-100.00140625-64.06L-100.00140625-63.67L-99.90140625000001-63.67L-99.61140625-64.06L-99.61140625-64.55ZM-102.05140625-61.33L-102.05140625-61.33L-102.05140625-61.04L-101.66140625-61.04Q-100.98140624999999-61.04 -100.58140625-61.72L-100.58140625-61.72L-100.58140625-62.01L-100.78140625-62.01Q-101.46140625-62.01 -102.05140625-61.33ZM-102.73140624999999-59.57L-104.20140625-59.57L-104.49140625-59.28L-104.49140625-59.08L-102.73140624999999-59.08L-102.44140625-59.28L-102.73140624999999-59.57ZM-116.80140625-50.1L-116.60140625-50.29L-116.31140625-50.29Q-115.53140625-49.61 -114.35140625-49.61L-114.35140625-49.61L-113.08140625-50.2Q-99.80140625-50.2 -99.80140625-49.41L-99.80140625-49.41L-99.71140625-48.73L-99.71140625-47.07Q-98.83140625-45.12 -98.83140625-43.36L-98.83140625-43.36L-98.83140625-41.8Q-100.00140625-25.88 -100.39140625-16.02L-100.39140625-16.02Q-100.58140625-15.43 -100.78140625-13.96L-100.78140625-13.96Q-100.68140625-13.57 -99.90140625000001-13.57L-99.90140625000001-13.57L-99.61140625-13.57Q-94.33140625-13.57 -94.33140625-12.3L-94.33140625-12.3L-94.43140625-12.11L-94.43140625-11.52Q-93.26140625-9.18 -93.26140625-4.1L-93.26140625-4.1L-92.87140625-0.2L-93.16140625 0L-97.46140625 0.2L-107.23140624999999 0.2Q-118.16140625 0.2 -118.16140625-1.56L-118.16140625-1.56Q-118.16140625-2.64 -118.75140625-3.71L-118.75140625-3.71Q-118.46140625-4.39 -117.77140625-4.79L-117.77140625-4.79L-117.48140625-4.79Q-117.09140625-4.39 -116.60140625-4.39L-116.60140625-4.39L-116.40140625-4.39Q-113.57140625-4.39 -109.67140625-4.88L-109.67140625-4.88L-109.67140625-5.08Q-118.06140625-5.66 -118.06140625-6.45L-118.06140625-6.45L-118.16140625-7.23L-118.16140625-8.3L-118.36140625-10.84Q-118.36140625-11.82 -111.03140625-11.82L-111.03140625-11.82Q-110.06140625-11.82 -110.06140625-16.21L-110.06140625-16.21L-108.89140625-41.89L-109.08140625-41.89Q-111.81140625-41.89 -111.81140625-42.29L-111.81140625-42.29Q-111.81140625-42.38 -111.52140625-42.58L-111.52140625-42.58Q-117.38140625-42.58 -117.38140625-43.95L-117.38140625-43.95Q-117.77140625-44.04 -117.77140625-44.73L-117.77140625-44.73L-117.28140625-45.9Q-117.28140625-46.29 -117.87140625-46.97L-117.87140625-46.97Q-117.09140625-47.75 -116.80140625-50.1L-116.80140625-50.1ZM-115.04140625-48.34L-115.04140625-48.34L-115.04140625-47.95L-114.55140625-47.95Q-112.01140625-47.95 -112.01140625-48.34L-112.01140625-48.34L-112.21140625-48.73L-112.50140625-48.73Q-115.04140625-48.73 -115.04140625-48.34ZM-101.46140625-48.73L-101.76140625-49.02L-102.05140625-48.73L-101.66140625-48.44L-101.46140625-48.44L-101.46140625-48.73ZM-112.89140625-46.97L-112.89140625-46.97L-114.65140625-46.97L-114.65140625-46.68Q-114.65140625-46.29 -113.28140625-46.29L-113.28140625-46.29L-112.21140625-46.29L-111.91140625-46.29L-108.69140625-46.29Q-107.23140624999999-46.29 -107.23140624999999-46.78L-107.23140624999999-46.78L-107.23140624999999-46.88Q-107.23140624999999-47.36 -112.89140625-46.97ZM-102.83140625-46.88L-104.20140625-46.88L-105.08140625-46.97L-105.08140625-46.78Q-104.39140625-46.78 -103.42140625-45.8L-103.42140625-45.8L-103.22140625-45.8Q-103.03140625-45.8 -103.03140625-46.09L-103.03140625-46.09L-102.83140625-46.09Q-102.44140625-46.09 -102.34140625-45.21L-102.34140625-45.21L-102.15140625000001-45.21L-100.78140625-46.19L-100.78140625-46.78L-102.83140625-46.88ZM-104.59140625-41.41L-104.59140625-41.41L-104.10140625-39.94L-104.78140625-38.18Q-104.39140625-37.3 -104.10140625-37.3L-104.10140625-37.3L-104.00140625-37.3L-103.81140625-37.89L-103.81140625-38.48Q-103.81140625-41.99 -102.73140624999999-41.99L-102.73140624999999-41.99L-102.44140625-42.38L-102.44140625-42.77L-102.73140624999999-43.07L-103.32140625-43.07Q-104.59140625-43.07 -104.59140625-41.41ZM-107.62140625-32.13L-107.62140625-32.13L-107.91140625-19.53Q-107.81140625-18.85 -107.62140625-18.85L-107.62140625-18.85Q-107.32140625-18.85 -107.23140624999999-19.73L-107.23140624999999-19.73L-107.32140625-21.19Q-106.83140625-21.68 -106.25140625-25.1L-106.25140625-25.1L-106.25140625-25.68L-106.44140625-27.05Q-105.86140625-27.54 -105.86140625-27.73L-105.86140625-27.73Q-106.25140625-28.81 -106.25140625-29.88L-106.25140625-29.88L-106.25140625-30.08Q-105.86140625-30.08 -105.27140625-41.02L-105.27140625-41.02Q-105.56140625-41.8 -105.86140625-41.8L-105.86140625-41.8Q-107.32140625-41.8 -107.62140625-32.13ZM-102.83140625-40.72L-102.83140625-40.72L-103.22140625-40.63L-103.22140625-40.04Q-103.22140625-39.45 -102.73140624999999-39.16L-102.73140624999999-39.16L-102.44140625-39.16L-102.15140625000001-39.55L-102.15140625000001-40.04Q-102.34140625-40.53 -102.83140625-40.72ZM-103.22140625-24.12L-103.32140625-24.8L-103.81140625-24.8Q-104.59140625-21.19 -104.59140625-19.43L-104.59140625-19.43L-104.49140625-19.43Q-104.00140625-19.43 -103.22140625-23.44L-103.22140625-23.44L-103.22140625-24.12ZM-105.17140625-15.63L-105.17140625-15.63L-105.17140625-14.94L-104.98140624999999-14.94Q-104.49140625-15.14 -104.49140625-16.11L-104.49140625-16.11L-104.49140625-16.8L-104.78140625-16.8Q-104.98140624999999-16.8 -105.17140625-15.63ZM-104.88140625-14.16L-104.98140624999999-14.16L-105.27140625-13.77L-105.27140625-13.28L-104.98140624999999-13.28L-104.59140625-13.57L-104.59140625-13.87L-104.88140625-14.16ZM-96.58140625-11.82L-97.17140625-11.82L-97.46140625-11.72Q-96.87140625-11.23 -95.31140625-11.13L-95.31140625-11.13L-95.31140625-11.43Q-95.31140625-11.82 -96.58140625-11.82L-96.58140625-11.82ZM-96.78140625-7.71L-96.78140625-7.71L-97.95140625-7.42Q-97.75140625-6.25 -96.19140625-6.25L-96.19140625-6.25L-95.90140625000001-6.25L-95.90140625000001-6.54L-96.09140625-6.84Q-96.09140625-6.93 -95.31140625-7.42L-95.31140625-7.42L-95.31140625-7.91Q-95.31140625-8.59 -95.70140625-8.69L-95.70140625-8.69L-96.09140625-8.69Q-96.39140625-8.59 -96.78140625-7.71ZM-115.43140625-8.59L-115.43140625-8.59L-116.11140625-8.4L-116.11140625-8.3Q-115.33140625-7.52 -110.06140625-7.42L-110.06140625-7.42L-109.37140625-7.42Q-108.59140625-7.42 -108.40140625000001-7.91L-108.40140625000001-7.91L-108.40140625000001-8.11Q-112.50140625-8.59 -115.43140625-8.59ZM-106.25140625-7.42L-106.25140625-7.42L-105.86140625-6.93Q-104.98140624999999-6.93 -104.98140624999999-7.91L-104.98140624999999-7.91L-105.47140625-7.91Q-106.05140625-7.91 -106.25140625-7.42ZM-96.87140625-5.47L-97.07140625-5.47L-97.36140625-5.08L-97.36140625-4.88L-97.17140625-4.88L-96.87140625-5.27L-96.87140625-5.47ZM-103.42140625-4.79L-104.59140625-4.88L-105.86140625-4.79L-107.23140624999999-4.79L-107.23140624999999-4.39L-105.86140625-4.3L-103.03140625-4.49L-103.03140625-4.79L-103.42140625-4.79ZM-94.43140625-1.56L-94.63140625-1.56L-95.02140625-1.27L-95.02140625-0.98L-94.43140625-0.98L-94.33140625-1.27L-94.43140625-1.56ZM-82.0309375-66.41L-82.0309375-66.41L-74.5109375-67.58L-74.2209375-67.58Q-72.4609375-67.58 -66.8909375-66.41L-66.8909375-66.41Q-59.5709375-66.41 -47.5609375-62.4L-47.5609375-62.4Q-42.3809375-58.4 -39.6509375-52.83L-39.6509375-52.83Q-38.6709375-49.8 -38.6709375-46.78L-38.6709375-46.78L-38.6709375-46.58Q-38.6709375-42.19 -42.2809375-36.82L-42.2809375-36.82Q-44.3309375-34.18 -48.5309375-31.93L-48.5309375-31.93Q-49.6109375-30.86 -53.2209375-28.81L-53.2209375-28.81Q-54.7809375-27.54 -54.7809375-27.05L-54.7809375-27.05Q-46.3909375-14.84 -43.5509375-11.23L-43.5509375-11.23Q-40.8209375-6.54 -38.4809375-6.54L-38.4809375-6.54Q-31.050937500000003-6.15 -31.050937500000003-4.39L-31.050937500000003-4.39L-30.270937500000002 0.2Q-30.470937499999998 0.68 -31.050937500000003 0.68L-31.050937500000003 0.68L-31.830937499999997 0.68L-37.2109375 1.95Q-37.9909375 0.88 -43.3609375 0.88L-43.3609375 0.88Q-48.6309375 0.88 -48.6309375 0.29L-48.6309375 0.29Q-48.7309375-1.17 -49.5109375-3.71L-49.5109375-3.71L-49.6109375-4.39L-49.6109375-4.79Q-49.6109375-5.66 -52.3409375-9.28L-52.3409375-9.28Q-52.8309375-11.43 -53.4209375-11.82L-53.4209375-11.82Q-55.6609375-14.94 -60.0609375-24.41L-60.0609375-24.41Q-61.1309375-25.49 -61.8209375-25.49L-61.8209375-25.49L-67.8709375-24.12Q-72.0709375-24.12 -72.0709375-21.58L-72.0709375-21.58L-72.0709375-19.92Q-72.0709375-7.52 -70.2109375-7.52L-70.2109375-7.52L-68.9409375-7.42L-67.8709375-7.42L-65.5309375-7.91Q-64.9409375-6.64 -64.9409375-3.71L-64.9409375-3.71L-65.3309375-2.73L-65.2309375-0.98Q-65.2309375-0.1 -72.0709375 0.88L-72.0709375 0.88L-72.3609375 0.68L-79.9809375 0.49L-85.4509375 0.49Q-86.4209375 0.49 -86.4209375-1.95L-86.4209375-1.95L-86.4209375-3.61Q-86.4209375-7.32 -84.6709375-7.32L-84.6709375-7.32L-80.2709375-8.3L-80.0809375-9.77Q-80.7609375-31.05 -81.5409375-37.7L-81.5409375-37.7Q-81.6409375-59.08 -82.1309375-59.08L-82.1309375-59.08L-82.5209375-59.28L-89.1609375-58.01L-89.5509375-58.11L-89.3509375-58.98L-90.5309375-58.98L-90.5309375-59.28L-90.7209375-59.28L-90.5309375-60.45L-90.5309375-61.04Q-90.5309375-61.62-91.3109375-62.99L-91.3109375-62.99Q-89.9409375-63.18 -89.9409375-63.77L-89.9409375-63.77L-90.5309375-64.55Q-90.5309375-65.23 -82.0309375-66.41ZM-73.2409375-65.72L-73.6309375-65.72L-73.92093750000001-65.43L-73.6309375-65.14L-71.9709375-65.14L-71.9709375-65.43L-73.2409375-65.72ZM-71.5809375-63.28Q-73.1409375-63.18 -73.1409375-62.79Q-73.1409375-62.4 -72.3609375-62.4L-72.3609375-62.4L-72.17093750000001-62.4Q-69.5309375-62.5 -69.3309375-62.99L-69.3309375-62.99L-69.6309375-63.28L-71.5809375-63.28ZM-65.0409375-62.01L-65.0409375-62.01L-64.6509375-61.82L-63.6709375-61.82Q-62.7909375-61.82 -62.6009375-62.3L-62.6009375-62.3Q-62.6009375-62.7 -63.7709375-62.7L-63.7709375-62.7Q-64.75093749999999-62.7 -65.0409375-62.01ZM-53.0309375-62.01L-53.0309375-62.01L-53.2209375-61.91L-53.2209375-61.82Q-52.8309375-61.43 -52.1509375-61.43L-52.1509375-61.43L-52.1509375-61.52Q-52.1509375-61.72 -53.0309375-62.01ZM-89.3509375-60.55L-89.3509375-60.55L-89.3509375-60.16L-89.0609375-60.06Q-88.3809375-60.06 -87.8909375-60.84L-87.8909375-60.84L-87.8909375-61.33L-88.2809375-61.72L-88.8709375-61.72Q-89.2609375-61.72 -89.3509375-60.55ZM-49.9009375-60.64L-49.9009375-60.64L-49.9009375-60.55Q-48.0509375-59.28 -45.3109375-57.23L-45.3109375-57.23L-45.0209375-57.23L-45.0209375-57.71Q-45.0209375-59.18 -49.9009375-60.64ZM-72.9509375-59.47L-72.9509375-59.47L-72.9509375-58.69L-72.17093750000001-52.44Q-72.75093749999999-42.29 -73.1409375-41.5L-73.1409375-41.5L-73.6309375-40.82L-73.6309375-39.65L-72.9509375-34.67Q-72.9509375-31.15 -71.9709375-31.15L-71.9709375-31.15L-71.7809375-31.15Q-64.3509375-32.13 -64.3509375-32.91L-64.3509375-32.91Q-59.3709375-34.77 -57.3209375-35.94L-57.3209375-35.94Q-53.0309375-35.94 -46.9709375-41.99L-46.9709375-41.99Q-45.3109375-45.31 -45.3109375-48.14L-45.3109375-48.14L-45.3109375-49.22Q-45.3109375-50.2 -48.0509375-54.39L-48.0509375-54.39Q-53.0309375-60.06 -57.5209375-60.06L-57.5209375-60.06L-60.840937499999995-60.25Q-68.6509375-59.47 -72.9509375-59.47ZM-79.00093749999999-59.28L-79.6909375-59.28L-79.9809375-58.98L-79.9809375-56.84L-79.4909375-51.46L-79.3909375-51.46L-78.8109375-59.08L-79.00093749999999-59.28ZM-48.1409375-57.42L-48.3409375-57.42L-48.5309375-57.13L-48.0509375-56.64L-47.7509375-56.64L-47.7509375-56.84L-48.1409375-57.42ZM-73.92093750000001-54L-74.1209375-54L-74.2209375-53.61L-74.2209375-53.22Q-74.1209375-52.54 -73.92093750000001-52.54L-73.92093750000001-52.54L-73.6309375-52.83L-73.6309375-53.61L-73.92093750000001-54ZM-76.9509375-50.78L-76.9509375-50.78L-77.6409375-44.24L-77.3409375-43.95L-76.9509375-43.95L-76.6609375-44.34L-76.6609375-49.51Q-76.6609375-50.78 -76.9509375-50.78ZM-42.4809375-48.73L-42.5809375-48.73L-42.8709375-48.54L-42.8709375-47.85L-42.5809375-47.66L-42.4809375-47.66L-42.1909375-47.95L-42.1909375-48.34L-42.4809375-48.73ZM-79.2009375-45.9L-79.3909375-46.19L-79.6909375-46.19L-79.6909375-45.9L-79.3909375-45.7L-79.2009375-45.7L-79.2009375-45.9ZM-41.8909375-43.26L-41.8909375-43.26L-42.1909375-43.26L-42.1909375-42.77L-42.8709375-41.31L-42.8709375-40.92L-42.2809375-40.23Q-41.6009375-40.23 -41.5009375-42.29L-41.5009375-42.29Q-41.6009375-43.26 -41.8909375-43.26ZM-44.2409375-38.38L-44.2409375-38.38Q-44.1409375-37.89 -43.5509375-37.5L-43.5509375-37.5L-43.3609375-37.5Q-42.2809375-38.38 -42.2809375-39.26L-42.2809375-39.26L-42.4809375-39.36Q-43.8509375-39.36 -44.2409375-38.38ZM-46.8709375-37.4L-46.8709375-37.4L-46.8709375-37.11L-46.4809375-37.11Q-45.7009375-37.4 -45.7009375-37.89L-45.7009375-37.89L-46.0009375-37.89Q-46.6809375-37.89 -46.8709375-37.4ZM-53.0309375-35.35L-53.0309375-35.35L-53.0309375-35.06L-52.1509375-35.06Q-51.6609375-35.64 -50.0009375-36.43L-50.0009375-36.43L-49.9009375-36.52L-49.9009375-36.82Q-51.2709375-36.82 -53.0309375-35.35ZM-76.9509375-36.04L-77.25093749999999-36.43L-77.5409375-36.04L-77.5409375-35.94L-77.25093749999999-35.64L-76.9509375-35.94L-76.9509375-36.04ZM-57.5209375-32.81L-57.5209375-32.81L-57.5209375-32.52Q-54.7809375-33.11 -53.9109375-34.38L-53.9109375-34.38L-53.9109375-34.47L-54.1009375-34.47Q-56.9309375-33.59 -57.5209375-32.81ZM-49.3209375-34.47L-49.5109375-34.47L-49.8009375-34.28L-49.8009375-34.08L-49.3209375-34.08L-49.3209375-34.47ZM-51.3709375-32.91L-51.3709375-32.91L-51.2709375-32.81L-51.1709375-32.81L-50.4909375-33.2L-50.4909375-33.5L-50.5809375-33.5Q-51.2709375-33.3 -51.3709375-32.91ZM-61.9109375-31.15L-61.9109375-31.15L-61.9109375-31.05L-61.230937499999996-31.05Q-59.8609375-31.25 -59.8609375-31.45L-59.8609375-31.45L-60.0609375-31.64L-60.2509375-31.64Q-61.9109375-31.45 -61.9109375-31.15ZM-65.5309375-30.37L-65.5309375-30.37L-65.5309375-30.27L-65.2309375-30.27Q-63.6709375-30.27 -63.6709375-30.76L-63.6709375-30.76L-63.6709375-30.96L-63.9609375-30.96Q-64.4509375-30.96 -65.5309375-30.37ZM-59.0809375-29.49L-59.0809375-29.49L-58.8909375-29.39L-58.7909375-29.39Q-56.3509375-29.98 -56.3509375-30.47L-56.3509375-30.47L-56.4409375-30.66L-56.5409375-30.66Q-58.5909375-30.27 -59.0809375-29.49ZM-57.0309375-23.63L-57.0309375-23.63L-57.0309375-23.54Q-57.0309375-22.75 -56.2509375-22.17L-56.2509375-22.17L-55.8609375-22.17L-55.8609375-22.36Q-56.5409375-23.63 -57.0309375-23.63ZM-76.8509375-11.23L-76.9509375-11.23L-77.3409375-10.84L-77.3409375-9.86L-76.9509375-9.86L-76.7609375-10.84L-76.8509375-11.23ZM-74.8009375-5.57L-74.8009375-5.57L-74.8009375-5.47L-74.4109375-5.08L-74.2209375-5.08Q-73.8309375-5.08 -73.6309375-6.45L-73.6309375-6.45L-73.6309375-6.84L-73.8309375-7.42L-74.1209375-7.42Q-74.5109375-7.42 -74.8009375-5.57ZM-76.6609375-7.23L-76.6609375-7.23L-76.8509375-7.23L-77.0509375-5.57L-77.0509375-5.47L-76.6609375-5.47L-76.2709375-5.76L-76.2709375-6.15Q-76.2709375-7.13 -76.6609375-7.23ZM-66.8009375-4.88L-67.0909375-4.88L-67.1909375-4.79L-67.1909375-4.39L-67.0909375-4.39L-66.8009375-4.79L-66.8009375-4.88ZM-43.7509375-4.39L-44.2409375-4.39L-44.6309375-3.91L-44.2409375-3.42L-44.1409375-3.42L-43.7509375-3.91L-43.7509375-4.39ZM-34.7609375-3.91L-34.7609375-3.91L-34.7609375-3.42L-34.1809375-3.32L-33.6909375-3.32L-33.4009375-3.61L-33.4009375-3.91L-33.6909375-4.2L-34.0809375-4.2Q-34.7609375-4.1 -34.7609375-3.91ZM-67.67093750000001-2.25L-67.67093750000001-2.25L-67.4809375-2.15L-67.0909375-2.15L-66.7009375-2.44L-66.7009375-2.64L-66.8909375-2.93Q-67.67093750000001-2.93 -67.67093750000001-2.25ZM-42.1909375-3.13L-42.1909375-3.13L-43.2609375-3.13L-43.2609375-3.03L-42.8709375-2.64L-41.2109375-2.64L-41.2109375-2.73Q-41.3109375-3.13 -42.1909375-3.13ZM-34.5709375-1.27L-34.5709375-1.27L-34.2809375-0.78L-33.0109375-0.78Q-32.1309375-0.78 -31.9309375-1.27L-31.9309375-1.27Q-31.9309375-1.66 -32.7109375-1.66L-32.7109375-1.66L-33.7909375-1.66Q-34.5709375-1.46 -34.5709375-1.27ZM-46.8709375-1.27L-47.5609375-1.27L-47.7509375-1.07Q-47.7509375-0.68 -47.2609375-0.68L-47.2609375-0.68L-46.7809375-0.88L-46.8709375-1.27ZM-4.296875-49.02L-4.296875-49.02Q-0.19687499999999858-49.02  5.663125000000001-45.51L 5.663125000000001-45.51Q 10.643124999999998-41.8  10.643124999999998-40.43L 10.643124999999998-40.43Q 14.553125000000001-32.23  14.553125000000001-30.57L 14.553125000000001-30.57L 14.653125000000003-29.79Q 13.183124999999997-26.37  13.183124999999997-25.1L 13.183124999999997-25.1L 12.593125-25L 4.293125000000003-25Q 3.1231250000000017-25  1.4631250000000016-24.71L 1.4631250000000016-24.71Q-12.596875-25.88 -18.256875-25.88L-18.256875-25.88L-20.316875-25.88Q-21.486875-24.12 -21.486875-23.34L-21.486875-23.34Q-20.796875-22.27 -20.796875-19.92L-20.796875-19.92Q-20.796875-16.21 -19.626875-15.53L-19.626875-15.53L-19.526875-15.04L-19.526875-14.94L-20.116875-15.23L-20.116875-14.94L-19.236874999999998-13.96Q-19.236874999999998-12.7 -17.476875-10.74L-17.476875-10.74Q-14.256875-5.08 -10.446874999999999-3.71L-10.446874999999999-3.71Q-7.226875-2.64 -3.1268749999999983-2.64L-3.1268749999999983-2.64Q-2.4368750000000006-2.64 -0.296875-3.91L-0.296875-3.91Q 1.4631250000000016-4.3  7.133125-10.25L 7.133125-10.25L 7.133125-10.55Q 7.133125-10.74  5.763125000000002-10.94L 5.763125000000002-10.94L 5.563124999999999-11.43Q 7.813124999999999-15.72  10.933124999999997-17.09L 10.933124999999997-17.09Q 11.813125-16.21  14.553125000000001-14.36L 14.553125000000001-14.36Q 16.703125-11.04  20.313125-6.54L 20.313125-6.54L 20.313125-6.15Q 17.183124999999997-2.05  15.823124999999997-2.05L 15.823124999999997-2.05L 15.433124999999997-2.05Q 15.433124999999997-4.2  12.793125000000003-4.49L 12.793125000000003-4.49Q 12.303125000000001-4.49  8.493125-1.27L 8.493125-1.27Q 6.253124999999997 0.49  0.7831249999999983 2.05L 0.7831249999999983 2.05Q-5.566875 3.32 -8.206875 3.32L-8.206875 3.32L-13.766875 1.37Q-18.456875 1.37 -22.366875-3.71L-22.366875-3.71Q-24.026875-5.47 -25.096875-7.91L-25.096875-7.91Q-25.096875-8.69 -27.246875-16.02L-27.246875-16.02Q-27.926875-18.85 -27.926875-21.48L-27.926875-21.48L-27.926875-21.58Q-27.926875-34.57 -20.116875-44.34L-20.116875-44.34Q-19.136875-46.78 -15.626875-47.95L-15.626875-47.95Q-13.276875-48.63 -9.956875-49.02L-9.956875-49.02Q-9.086875-49.41 -4.296875-49.02ZM-13.086875-47.17L-13.276875-46.97L-13.276875-46.88L-13.086875-46.88Q-11.526875-46.88 -7.226875-47.95L-7.226875-47.95Q-6.346875000000001-48.05 -6.346875000000001-48.44L-6.346875000000001-48.44L-6.636875-48.73L-6.736875000000001-48.73Q-9.566875-48.73 -13.086875-47.17L-13.086875-47.17ZM-17.186875-45.31L-17.186875-45.31L-17.186875-45.21L-16.896875-45.02L-16.796875-45.02Q-14.846875-45.51 -14.846875-46L-14.846875-46L-14.846875-46.58L-15.236875-46.97L-15.426875-46.97Q-17.186875-46.39 -17.186875-45.31ZM-2.1468750000000014-46.29L-2.1468750000000014-46.29L-5.076875000000001-46.29L-5.076875000000001-46.09Q-5.076875000000001-45.7 -1.0768750000000011-45.51L-1.0768750000000011-45.51L-0.9768749999999997-45.51L-0.9768749999999997-45.9Q-0.9768749999999997-46.09 -2.1468750000000014-46.29ZM-9.086875-44.82L-9.086875-44.82L-9.086875-44.73Q-9.086875-44.34 -5.076875000000001-43.75L-5.076875000000001-43.75L-4.886875-43.85L-4.886875-44.24Q-5.666875000000001-45.31 -7.516874999999999-45.31L-7.516874999999999-45.31L-7.816875-45.31Q-9.086875-45.21 -9.086875-44.82ZM-3.1268749999999983-44.24L-3.1268749999999983-44.24L-3.1268749999999983-44.14Q 2.4431249999999984-40.92  2.8331250000000026-40.92L 2.8331250000000026-40.92L 2.933124999999997-40.92L 3.903125000000003-41.31L 4.493124999999999-41.11L 4.593125000000001-41.31L 4.593125000000001-41.41Q 4.203125-41.7  2.933124999999997-41.99L 2.933124999999997-41.99L 0.9731249999999996-42.87Q 0.19312499999999844-44.53 -2.1468750000000014-44.53L-2.1468750000000014-44.53L-2.4368750000000006-44.53Q-3.1268749999999983-44.43 -3.1268749999999983-44.24ZM-14.746875-41.41L-14.746875-41.41Q-13.766875-42.19 -10.836875-43.07L-10.836875-43.07L-10.836875-43.26L-10.936875-43.46L-11.916875000000001-43.46Q-14.746875-42.68 -14.746875-41.41ZM-19.916874999999997-34.96L-19.916874999999997-34.96L-19.916874999999997-34.67Q-19.916874999999997-33.59 -2.1468750000000014-32.23L-2.1468750000000014-32.23L-1.166875000000001-31.93L 0.09312500000000057-32.03Q 4.003124999999997-30.76  5.373125000000002-30.76L 5.373125000000002-30.76Q 5.373125000000002-30.47  5.953125-30.27L 5.953125-30.27Q 6.543125000000003-31.15  6.543125000000003-31.93L 6.543125000000003-31.93L 6.543125000000003-33.79Q 6.543125000000003-35.06  1.6631250000000009-39.45L 1.6631250000000009-39.45Q-0.5868749999999991-41.7 -3.416875000000001-41.99L-3.416875000000001-41.99L-6.736875000000001-42.58Q-14.846875-40.92 -17.386875-38.57L-17.386875-38.57Q-18.456875-36.52 -19.916874999999997-34.96ZM-18.846875-40.82L-18.846875-40.82L-18.846875-40.63L-18.656875-40.63Q-17.386875-40.92 -17.386875-41.31L-17.386875-41.31L-17.386875-41.41L-17.866875-41.41Q-18.356875000000002-41.41 -18.846875-40.82ZM 4.493124999999999-39.45L 4.493124999999999-39.45Q 4.683124999999997-38.67  5.373125000000002-38.67L 5.373125000000002-38.67L 5.563124999999999-38.67L 5.763125000000002-38.96L 5.763125000000002-39.55L 5.373125000000002-40.04Q 4.493124999999999-40.04  4.493124999999999-39.45ZM-20.316875-38.96L-20.706875-38.96L-20.896875-38.67L-20.896875-38.57L-20.706875-38.57L-20.316875-38.87L-20.316875-38.96ZM 7.133125-37.99L 6.933124999999997-38.18L 6.543125000000003-38.18Q 7.613124999999997-34.96  8.103124999999999-34.67L 8.103124999999999-34.67L 8.493125-34.67L 8.793125000000003-34.86Q 8.003124999999997-37.99  7.133125-37.99L 7.133125-37.99ZM-19.826875-36.43L-19.826875-36.43Q-19.236874999999998-36.52 -19.236874999999998-37.21L-19.236874999999998-37.21L-19.236874999999998-37.3Q-19.826875-37.11 -19.826875-36.43ZM 10.543125000000003-33.79L 10.253124999999997-33.79L 9.963124999999998-33.59L 9.963124999999998-32.91L 10.253124999999997-32.52Q 10.643124999999998-32.62  10.643124999999998-33.2L 10.643124999999998-33.2L 10.643124999999998-33.59L 10.543125000000003-33.79ZM-20.896875-32.42L-20.896875-32.42L-20.896875-32.03L-20.706875-31.84L-20.506875-31.84Q-19.826875-32.13 -19.336875-32.91L-19.336875-32.91L-19.336875-33.2L-19.826875-33.2Q-20.406875-33.2 -20.896875-32.42ZM-24.906875-33.01L-24.906875-33.01Q-25.686875-32.23 -26.266875-29.1L-26.266875-29.1L-26.076875-29.1Q-25.486875-29.1 -24.316875-32.52L-24.316875-32.52Q-24.506875-33.01 -24.906875-33.01ZM-14.936875-31.84L-14.936875-31.84L-14.936875-31.54Q-13.086875-30.27 -8.206875-30.27L-8.206875-30.27L-7.326875000000001-30.27L-6.056875000000002-30.37L-6.056875000000002-30.76Q-10.056875000000002-31.64 -14.936875-31.84ZM 2.933124999999997-29L 2.933124999999997-29.3L 2.6331249999999997-29.3L 2.6331249999999997-29L 2.933124999999997-29ZM-15.916875-28.52L-15.916875-28.52L-15.916875-28.32Q-13.966875-27.83 -5.566875-27.34L-5.566875-27.34L-5.566875-27.25L-5.566875-27.15L-7.616875-26.86Q-7.616875-26.56 -5.076875000000001-26.56L-5.076875000000001-26.56Q-0.9768749999999997-26.56 -0.9768749999999997-26.95L-0.9768749999999997-26.95Q-0.9768749999999997-27.93 -15.916875-28.52ZM-25.386875-27.64L-25.776875-27.83L-26.266875-27.83L-26.266875-27.25Q-26.266875-26.66 -25.976875-26.66L-25.976875-26.66Q-25.486875-26.66 -25.386875-27.64L-25.386875-27.64ZM-17.866875-27.54L-17.866875-27.64L-18.356875000000002-27.54L-18.356875000000002-26.95L-17.866875-26.95L-17.866875-27.34L-17.866875-27.54ZM-20.996875-26.86L-20.996875-26.86L-20.996875-26.76L-20.896875-26.76L-19.236874999999998-26.95L-19.236874999999998-27.15L-19.526875-27.54L-19.826875-27.54Q-20.706875-27.54 -20.996875-26.86ZM 2.733125000000001-26.66L 2.733125000000001-26.66Q 2.733125000000001-26.27  4.493124999999999-26.27L 4.493124999999999-26.27L 5.373125000000002-26.37L 5.373125000000002-26.56Q 5.373125000000002-26.95  3.5131250000000023-26.95L 3.5131250000000023-26.95Q 2.733125000000001-26.76  2.733125000000001-26.66ZM-26.266875-24.12L-26.266875-24.12L-26.266875-23.83L-26.266875-23.73Q-26.366875-23.44 -26.366875-22.36L-26.366875-22.36L-26.366875-21.97Q-26.366875-20.21 -25.386875-18.85L-25.386875-18.85L-25.296875-18.85Q-25.296875-23.54 -26.266875-24.12ZM-24.316875-15.43L-24.506875-15.63L-24.806874999999998-15.63L-24.806874999999998-15.43L-24.506875-15.23L-24.316875-15.23L-24.316875-15.43ZM-23.826875-13.96L-23.826875-13.96L-23.926875-13.87L-23.926875-13.67Q-23.536875000000002-12.11 -22.756875-12.11L-22.756875-12.11L-22.756875-12.21L-22.756875-12.4Q-22.756875-13.18 -23.826875-13.96ZM 8.003124999999997-13.09L 8.003124999999997-13.09L 8.203125-12.79L 8.693125000000002-12.79Q 9.273125-12.79  9.373125000000002-13.18L 9.373125000000002-13.18L 8.983125000000001-13.57L 8.883125-13.57Q 8.203125-13.57  8.003124999999997-13.09ZM 5.763125000000002-7.42L 5.763125000000002-7.42L 5.953125-7.32L 6.053125000000001-7.32Q 7.133125-7.32  7.423124999999999-8.59L 7.423124999999999-8.59L 7.423124999999999-8.79Q 6.343125000000001-8.79  5.763125000000002-7.42ZM 12.593125-7.62L 12.593125-7.62L 12.693125000000002-7.52L 12.993125-7.52Q 13.573124999999997-7.91  13.573124999999997-8.59L 13.573124999999997-8.59L 13.283124999999998-8.59Q 12.593125-8.2  12.593125-7.62ZM 16.013125000000002-8.59L 16.013125000000002-8.59L 15.913125-8.59L 15.913125-8.4Q 16.213124999999998-7.23  16.793125000000003-7.23L 16.793125000000003-7.23L 16.893124999999998-7.23L 17.093125-7.42L 17.093125-7.52Q 16.893124999999998-8.59  16.013125000000002-8.59ZM 10.353124999999999-6.54L 10.353124999999999-6.54L 10.643124999999998-6.35Q 12.113124999999997-6.84  12.113124999999997-7.62L 12.113124999999997-7.62L 12.113124999999997-7.81L 12.013125000000002-7.81Q 10.643124999999998-7.81  10.353124999999999-6.54ZM 2.733125000000001-4.39L 2.733125000000001-4.39L 2.933124999999997-4.39Q 3.713124999999998-4.69  3.8131249999999994-5.37L 3.8131249999999994-5.37L 3.713124999999998-5.47Q 2.733125000000001-4.88  2.733125000000001-4.39ZM 8.493125-3.91L 8.493125-3.91L 8.883125-3.91Q 9.863124999999997-4.79  9.863124999999997-5.18L 9.863124999999997-5.18L 9.763125000000002-5.18Q 8.493125-4.79  8.493125-3.91ZM-19.236874999999998-3.03L-19.236874999999998-3.03L-19.526875-3.03L-19.526875-2.64Q-19.336875-2.15 -17.866875-1.56L-17.866875-1.56L-17.476875-1.27Q-18.556874999999998-2.93 -19.236874999999998-3.03ZM-12.406875-2.64L-12.406875-2.64L-12.496875-2.64L-12.496875-2.54Q-12.496875-2.15 -10.446874999999999-1.66L-10.446874999999999-1.66L-10.346875-1.76L-10.346875-1.95Q-11.616875-2.64 -12.406875-2.64ZM-6.636875-1.27L-6.636875-1.56L-6.936875000000001-1.56L-6.936875000000001-1.27L-6.636875-1.27ZM 3.5131250000000023-0.1L 3.5131250000000023-0.1Q 4.493124999999999-0.1  5.083125000000003-1.56L 5.083125000000003-1.56L 4.783124999999998-1.56Q 3.5131250000000023-0.88  3.5131250000000023-0.1ZM-3.3168749999999996 0.88L-3.3168749999999996 0.88L-5.366875 0.68L-5.756875000000001 0.68Q-6.636875 0.68 -6.736875000000001 1.07L-6.736875000000001 1.07L-6.736875000000001 1.27L-6.346875000000001 1.56L-4.586874999999999 1.56Q-1.5668749999999996 1.56  2.543125 0.49L 2.543125 0.49Q 2.3431250000000006-0.1  1.3631250000000001-0.1L 1.3631250000000001-0.1L 0.8831249999999997-0.1Q-1.4668750000000017-0.1 -3.3168749999999996 0.88ZM 20.70140625-44.82L 22.26140625-49.22L 22.46140625-49.41Q 24.71140625-49.02  27.15140625-49.02L 27.15140625-49.02L 35.15140625-49.02L 35.45140625-48.73Q 34.86140625-46.97  34.86140625-46L 34.86140625-46L 34.86140625-44.34Q 35.25140625-41.6  36.421406250000004-41.6L 36.421406250000004-41.6Q 37.01140625-42.68  40.33140625-43.65L 40.33140625-43.65Q 48.24140625-47.07  53.22140625-47.07L 53.22140625-47.07Q 56.54140625-47.07  60.35140625-44.14L 60.35140625-44.14Q 63.18140625-43.07  65.82140625-39.55L 65.82140625-39.55Q 69.82140625-33.2  69.82140625-24.61L 69.82140625-24.61L 69.82140625-23.83L 69.14140625-16.8L 69.82140625-11.72L 68.85140625-7.13L 68.85140625-6.93L 68.85140625-6.15L 72.56140625-5.96L 74.22140625-5.96Q 75.88140625-5.96  76.17140624999999-5.66L 76.17140624999999-5.66Q 75.78140625 1.46  74.71140625000001 1.46L 74.71140625000001 1.46Q 72.75140625 2.64  70.51140625 2.64L 70.51140625 2.64L 68.46140625000001 2.64Q 63.77140625 2.64  58.59140625 3.91L 58.59140625 3.91Q 55.17140625 3.42  55.17140625 0.49L 55.17140625 0.49L 55.08140625-3.03Q 55.08140625-6.25  56.74140625-7.71L 56.74140625-7.71Q 57.62140625-12.5  58.79140625-16.41L 58.79140625-16.41L 59.37140625-25.1Q 59.67140625-25.1  59.67140625-27.25L 59.67140625-27.25Q 59.67140625-29.88  55.47140625-34.77L 55.47140625-34.77Q 52.24140625-36.13  51.76140625-36.13L 51.76140625-36.13Q 46.09140625-36.13  41.60140625-31.35L 41.60140625-31.35Q 41.211406249999996-31.35  36.82140625-26.56L 36.82140625-26.56Q 35.45140625-25.49  35.45140625-20.02L 35.45140625-20.02Q 35.64140625-10.16  36.13140625-10.16L 36.13140625-10.16Q 40.04140625-9.47  40.04140625-8.69L 40.04140625-8.69L 40.04140625-8.3L 37.89140625-8.4L 36.33140625-8.3L 36.33140625-7.91Q 36.33140625-7.52  40.04140625-6.93L 40.04140625-6.93Q 40.72140625-6.25  40.72140625-4.69L 40.72140625-4.69L 40.72140625-4.49Q 40.72140625-2.15  39.74140625 0.49L 39.74140625 0.49L 28.42140625 0.59Q 26.76140625 0.59  25.98140625-1.07L 25.98140625-1.07Q 25.58140625-2.93  25.10140625-8.3L 25.10140625-8.3Q 25.10140625-8.79  28.03140625-9.38L 28.03140625-9.38L 28.51140625-10.06L 28.51140625-10.16Q 28.51140625-10.74  27.73140625-11.82L 27.73140625-11.82L 27.73140625-14.84L 27.73140625-20.41L 28.12140625-29.39Q 28.12140625-38.57  27.34140625-38.57L 27.34140625-38.57L 26.85140625-38.57L 22.26140625-37.99Q 21.58140625-37.99 20.41140625-39.16L 20.41140625-39.16L 20.41140625-39.55Q 20.90140625-40.33 20.90140625-41.21L 20.90140625-41.21L 20.70140625-44.82ZM 30.76140625-47.27L 30.76140625-47.46L 22.75140625-46.19L 22.75140625-46Q 22.75140625-45.7  24.22140625-45.61L 24.22140625-45.61Q 30.571406250000003-45.61  30.571406250000003-46.48L 30.571406250000003-46.48L 30.96140625-47.07L 30.96140625-47.27L 30.76140625-47.27ZM 50.19140625-45.61L 50.19140625-45.61L 50.19140625-45.51Q 50.88140625-45.51  52.54140625-44.34L 52.54140625-44.34L 53.61140625-44.04L 56.74140625-44.14L 56.83140625-44.34L 56.83140625-44.43Q 56.74140625-45.02  55.76140625-45.02L 55.76140625-45.02L 55.37140625-45.02L 54.39140625-44.82Q 52.24140625-46.09  51.27140625-46.09L 51.27140625-46.09Q 50.39140625-46.09  50.19140625-45.61ZM 43.55140625-43.85L 43.55140625-43.85L 43.55140625-43.75L 43.75140625-43.46Q 48.34140625-44.63  48.34140625-45.21L 48.34140625-45.21L 48.14140625-45.21Q 45.99140625-45.21  43.55140625-43.85ZM 24.71140625-43.75L 24.71140625-43.75L 25.00140625-43.46L 25.19140625-43.46Q 26.46140625-43.55  26.46140625-44.04L 26.46140625-44.04L 25.98140625-44.14Q 24.71140625-44.14  24.71140625-43.75ZM 25.681406250000002-41.89L 25.58140625-41.8L 25.58140625-41.6L 27.44140625-41.7L 27.73140625-41.7Q 28.71140625-41.7  28.90140625-41.21L 28.90140625-41.21L 28.90140625-40.92Q 28.42140625-40.43  28.42140625-39.94L 28.42140625-39.94Q 28.90140625-39.55  29.59140625-39.55L 29.59140625-39.55Q 29.881406249999998-39.55  29.881406249999998-39.94L 29.881406249999998-39.94L 29.98140625-43.16L 29.881406249999998-43.46L 29.59140625-43.46Q 29.00140625-43.07  25.681406250000002-41.89L 25.681406250000002-41.89ZM 41.80140625-42.87L 41.80140625-42.87L 41.89140625-42.77L 41.89140625-42.68Q 42.77140625-42.97  42.77140625-43.16L 42.77140625-43.16L 42.77140625-43.36L 42.58140625-43.36Q 41.80140625-43.16  41.80140625-42.87ZM 22.07140625-42.77L 22.07140625-42.77L 22.07140625-42.68Q 22.07140625-42.38  22.56140625-42.19L 22.56140625-42.19Q 23.34140625-42.19  24.32140625-43.07L 24.32140625-43.07L 24.32140625-43.16L 22.75140625-43.16Q 22.07140625-43.07  22.07140625-42.77ZM 55.76140625-41.21L 55.76140625-41.21Q 55.76140625-40.82  57.52140625-40.63L 57.52140625-40.63Q 57.91140625-40.92  57.91140625-41.41Q 57.91140625-41.89  56.35140625-42.19L 56.35140625-42.19Q 55.76140625-41.8  55.76140625-41.21ZM 36.03140625-40.43L 36.03140625-40.43L 36.03140625-40.04Q 37.40140625-40.04  38.961406249999996-41.8L 38.961406249999996-41.8L 38.961406249999996-41.89L 38.87140625-41.99L 38.77140625-41.99Q 37.60140625-41.99  36.03140625-40.43ZM 59.96140625-41.8L 59.47140625-41.8L 59.18140625-41.41Q 59.37140625-40.92  59.96140625-40.92L 59.96140625-40.92L 60.45140625-40.92L 60.94140625-41.31L 60.94140625-41.41Q 60.84140625-41.8  59.96140625-41.8L 59.96140625-41.8ZM 48.63140625-40.82L 48.63140625-40.82L 48.63140625-40.63L 49.12140625-40.63Q 50.58140625-40.82  50.58140625-41.21L 50.58140625-41.21L 50.58140625-41.41L 49.90140625-41.41Q 48.63140625-41.31  48.63140625-40.82ZM 32.62140625-41.31L 32.62140625-41.31L 32.13140625-41.31L 31.931406250000002-40.72L 31.931406250000002-38.96Q 31.931406250000002-37.79  31.54140625-37.4L 31.54140625-37.4L 31.54140625-36.91L 31.931406250000002-35.55L 31.931406250000002-34.77Q 31.931406250000002-33.98  32.421406250000004-33.69L 32.421406250000004-33.69Q 32.52140625-33.69  33.01140625-35.94L 33.01140625-35.94Q 34.37140625-37.01  34.37140625-37.6L 34.37140625-37.6Q 34.37140625-38.09  33.30140625-39.75L 33.30140625-39.75Q 33.01140625-41.31  32.62140625-41.31ZM 22.85140625-39.75L 22.85140625-39.75L 22.85140625-39.55L 23.83140625-39.55L 24.22140625-39.94L 24.22140625-40.04L 23.73140625-40.23Q 22.85140625-39.94  22.85140625-39.75ZM 57.62140625-39.16L 57.81140625-39.45L 57.23140625-39.75L 57.03140625-39.55L 57.03140625-39.45L 57.52140625-39.16L 57.62140625-39.16ZM 50.29140625-38.77L 50.29140625-38.77L 50.49140625-38.57L 50.58140625-38.57Q 52.73140625-38.57  52.73140625-38.96L 52.73140625-38.96L 51.951406250000005-39.16Q 50.29140625-38.96  50.29140625-38.77ZM 36.13140625-34.96L 36.13140625-34.96L 36.13140625-34.67Q 38.671406250000004-34.96  43.16140625-38.87L 43.16140625-38.87L 43.16140625-38.96L 42.58140625-38.96Q 42.19140625-38.96  40.23140625-37.6L 40.23140625-37.6Q 36.13140625-36.33  36.13140625-34.96ZM 59.47140625-38.77L 59.47140625-38.77L 59.37140625-38.77L 59.37140625-38.48Q 59.37140625-38.18  60.64140625-35.74L 60.64140625-35.74Q 60.64140625-34.96  61.03140625-34.96L 61.03140625-34.96L 61.42140625-35.35L 61.42140625-35.74Q 61.42140625-37.3  59.47140625-38.77ZM 29.10140625-37.6L 29.10140625-37.6L 29.30140625-37.3L 29.49140625-37.3L 29.78140625-38.57L 29.49140625-38.57Q 29.201406249999998-38.57  29.10140625-37.6ZM 53.71140625-36.91L 53.71140625-36.91L 53.71140625-36.62L 56.15140625-36.62L 56.54140625-36.91L 56.54140625-37.3L 56.05140625-37.6L 55.57140625-37.6Q 53.71140625-37.3  53.71140625-36.91ZM 44.04140625-35.35L 44.04140625-35.35Q 46.19140625-35.74  46.19140625-36.43L 46.19140625-36.43L 45.90140625-36.62L 45.60140625-36.62Q 44.14140625-36.62  44.04140625-35.35ZM 40.921406250000004-34.18L 40.921406250000004-34.18L 40.921406250000004-33.98L 41.211406249999996-33.98Q 42.77140625-35.25  42.77140625-36.13L 42.77140625-36.13L 42.58140625-36.13L 42.58140625-36.33Q 41.80140625-36.33  40.921406250000004-34.18ZM 33.40140625-35.16L 33.40140625-35.16L 33.59140625-34.57Q 33.59140625-33.79  32.711406249999996-33.01L 32.711406249999996-33.01Q 33.20140625-32.52  33.20140625-32.03L 33.20140625-32.03Q 33.20140625-27.15  33.89140625-27.15L 33.89140625-27.15L 33.98140625-27.15Q 34.76140625-28.91  34.76140625-31.74L 34.76140625-31.74Q 34.671406250000004-35.35  33.89140625-35.55L 33.89140625-35.55L 33.69140625-35.55Q 33.40140625-35.55  33.40140625-35.16ZM 60.94140625-33.89L 60.94140625-33.89L 60.94140625-33.59Q 62.11140625-29.2  62.40140625-29L 62.40140625-29L 62.60140625-29.69L 62.60140625-30.57Q 61.91140625-33.89  60.94140625-33.89ZM 65.33140625-33.69L 65.33140625-33.69L 65.23140624999999-33.69Q 65.43140625000001-28.52  66.21140625000001-28.52L 66.21140625000001-28.52L 66.40140625000001-28.52Q 65.92140624999999-33.69  65.33140625-33.69ZM 40.04140625-33.5L 39.74140625-33.5L 39.16140625-32.71L 39.16140625-32.52L 39.26140625-32.32L 39.74140625-32.32L 40.04140625-33.5ZM 37.211406249999996-32.52L 37.01140625-32.52L 36.82140625-32.32L 37.01140625-32.03L 37.40140625-32.03L 37.40140625-32.32L 37.211406249999996-32.52ZM 64.65140625000001-21L 64.65140625000001-21L 64.65140625000001-20.9L 64.94140625-19.73L 65.43140625000001-19.73Q 65.33140625-21  64.65140625000001-21ZM 60.94140625-13.96L 60.94140625-13.96L 61.03140625-13.87L 61.13140625-13.87Q 61.42140625-13.87  61.42140625-14.84L 61.42140625-14.84L 61.42140625-16.02Q 61.03140625-16.02  60.94140625-13.96ZM 60.35140625-12.4L 60.35140625-12.4Q 60.94140625-11.72  60.94140625-10.55L 60.94140625-10.55L 61.13140625-10.55L 61.42140625-11.72L 61.42140625-13.38Q 60.35140625-13.38  60.35140625-12.4ZM 64.65140625000001-12.79L 64.65140625000001-13.28L 64.45140624999999-13.28L 64.45140624999999-12.79L 64.65140625000001-12.79ZM 66.89140625-12.79L 66.89140625-12.79L 66.70140624999999-10.84L 66.70140624999999-8.4L 66.80140625-8.4Q 68.07140625-9.96  68.07140625-11.33L 68.07140625-11.33L 68.07140625-11.43Q 68.07140625-12.79  66.89140625-12.79ZM 64.35140625-8.3L 64.35140625-8.3L 64.35140625-8.11L 64.45140624999999-8.11L 64.84140625-9.18L 64.84140625-9.38L 64.65140625000001-9.38Q 64.35140625-9.38  64.35140625-8.3ZM 27.73140625-7.91L 26.66140625-7.91L 26.46140625-7.52L 26.46140625-7.42Q 26.66140625-5.66  27.73140625-5.66L 27.73140625-5.66L 28.32140625-5.66L 28.61140625-5.96L 28.61140625-6.15Q 27.73140625-7.23  27.73140625-7.91L 27.73140625-7.91ZM 64.94140625-6.15L 64.65140625000001-6.54L 64.26140625-6.54L 64.26140625-6.15L 64.65140625000001-5.76L 64.94140625-5.96L 64.94140625-6.15ZM 69.92140624999999-4.3L 69.92140624999999-4.3L 69.92140624999999-4Q 74.32140625-4  74.32140625-4.69L 74.32140625-4.69L 74.32140625-4.88L 72.95140624999999-4.88Q 69.92140624999999-4.79  69.92140624999999-4.3ZM 30.76140625-3.32L 30.76140625-3.32Q 30.76140625-2.83  33.30140625-2.83L 33.30140625-2.83Q 38.181406249999995-2.83  38.181406249999995-3.32L 38.181406249999995-3.32Q 38.181406249999995-3.91  34.86140625-3.91L 34.86140625-3.91Q 31.15140625-3.91  30.76140625-3.32ZM 57.62140625-2.54L 57.23140625-3.03L 56.93140625-3.03L 56.93140625-2.44L 57.23140625-2.15L 57.52140625-2.15L 57.62140625-2.44L 57.62140625-2.54ZM 70.80140625-2.25L 70.80140625-2.25L 70.80140625-1.95Q 70.99140625-1.46  71.68140625000001-1.46L 71.68140625000001-1.46Q 73.24140625-1.46  73.53140625-2.15L 73.53140625-2.15L 73.53140625-2.44Q 73.34140625-3.03  72.46140625000001-3.03L 72.46140625000001-3.03L 71.97140625-3.03Q 70.99140625-3.03  70.80140625-2.25ZM 59.37140625-0.49L 59.37140625-0.49Q 59.67140625 0.29  60.35140625 0.29L 60.35140625 0.29Q 65.62140625 0.2  65.62140625-0.39L 65.62140625-0.39Q 64.94140625-1.27  63.18140625-1.27L 63.18140625-1.27Q 59.37140625-1.17  59.37140625-0.49ZM 57.32140625 1.37L 56.93140625 1.37L 56.54140625 1.76L 56.54140625 1.95Q 56.54140625 2.64  59.18140625 2.64L 59.18140625 2.64L 59.67140625 2.64L 60.45140625 2.44L 60.45140625 2.34Q 59.47140625 1.37  57.32140625 1.37L 57.32140625 1.37ZM 100.29671875-78.52L 100.29671875-78.52Q 102.43671875-78.52  103.80671875-77.34L 103.80671875-77.34Q 102.63671875-74.22  102.24671875-67.48L 102.24671875-67.48L 101.36671875-58.5Q 101.36671875-57.81  105.27671875-57.81L 105.27671875-57.81Q 116.79671875-57.81  116.79671875-56.74L 116.79671875-56.74Q 117.28671875-56.74  117.96671875-56.15L 117.96671875-56.15Q 116.99671875-54.88  116.99671875-54.3L 116.99671875-54.3L 116.99671875-54L 117.28671875-52.05L 116.01671875-47.75Q 116.01671875-47.07  117.47671875-45.8L 117.47671875-45.8L 117.47671875-45.61Q 115.13671875-44.82  113.67671874999999-44.82L 113.67671874999999-44.82Q 112.10671875-44.92  112.10671875-45.31L 112.10671875-45.31L 112.10671875-45.51L 112.98671875-45.61L 113.67671874999999-45.61L 114.06671875-46L 114.06671875-46.19L 113.67671874999999-46.29L 107.12671875-46.19L 101.75671875-46.29Q 101.26671875-46.29  100.68671875-40.82L 100.68671875-40.82L 100.58671875-40.82L 99.21671875-42.38L 98.92671874999999-41.31L 98.92671874999999-40.72Q 99.02671875-37.99  99.60671875-37.79L 99.60671875-37.79Q 99.99671875-37.79  100.29671875-39.55L 100.29671875-39.55L 100.29671875-40.23L 100.58671875-40.23L 100.68671875-39.94L 99.99671875-30.57Q 101.17671874999999-10.35  102.04671875-10.35L 102.04671875-10.35Q 102.53671875-7.23  104.49671875-7.23L 104.49671875-7.23Q 105.56671875-6.54  107.12671875-6.54L 107.12671875-6.54L 108.88671875-6.54L 114.74671875-6.84Q 114.93671875-6.84  115.42671874999999-1.66L 115.42671874999999-1.66Q 115.62671875000001-0.1  114.79671875 0.63Q 113.96671875 1.37  112.01671875 1.37L 112.01671875 1.37L 104.49671875 1.56Q 98.33671875 1.56  94.13671875-1.86L 94.13671875-1.86Q 91.40671875-2.83  91.40671875-7.71L 91.40671875-7.71Q 91.20671875-10.35  90.72671875-23.34L 90.72671875-23.34L 91.89671875-36.62L 92.18671875-42.38L 92.18671875-43.16Q 91.50671875-47.27  89.84671875000001-47.27L 89.84671875000001-47.27L 86.91671875-47.27L 83.49671875-47.27Q 82.02671875-47.27  80.56671875-46.58L 80.56671875-46.58Q 79.58671875-46.68  78.12671875-49.22L 78.12671875-49.22L 80.07671875-57.91Q 80.07671875-58.3  91.89671875-58.4L 91.89671875-58.4Q 91.89671875-59.67  93.26671875-61.62L 93.26671875-61.62Q 93.65671875-76.86  94.33671875-76.86L 94.33671875-76.86L 94.33671875-77.15Q 94.33671875-77.34  93.84671875000001-77.34L 93.84671875000001-77.34L 93.84671875000001-77.64Q 93.84671875000001-77.93  100.29671875-78.52ZM 96.77671875-75.68L 96.58671875-75.88L 96.48671875-75.88L 96.48671875-75.29L 96.77671875-75.29L 96.77671875-75.68ZM 101.75671875-75.68L 100.77671875-75.68L 100.38671875-75.29L 100.38671875-75.1L 100.68671875-72.85L 100.87671875-72.85Q 102.04671875-74.02  102.04671875-74.9L 102.04671875-74.9L 102.04671875-75.29L 101.75671875-75.68ZM 97.26671875-71.09L 97.26671875-72.07L 96.97671875-72.36Q 96.77671875-71.39  96.77671875-69.82L 96.77671875-69.82L 96.77671875-69.43L 96.97671875-69.43L 97.26671875-71.09ZM 97.55671875-67.97L 97.55671875-67.97L 97.36671875-67.97L 96.97671875-58.3L 96.97671875-58.2L 97.26671875-57.91L 97.45671875-57.91Q 98.14671875-57.91  98.14671875-60.35L 98.14671875-60.35L 98.14671875-62.6L 97.94671875-67.38Q 97.75671875-67.97  97.55671875-67.97ZM 80.66671875-56.74L 80.66671875-56.74Q 80.66671875-56.05  81.54671875-56.05L 81.54671875-56.05L 83.00671875-56.05Q 87.01671875-56.05  90.42671874999999-56.45L 90.42671874999999-56.45L 90.42671874999999-56.64Q 90.42671874999999-57.13  85.64671875-57.13L 85.64671875-57.13L 81.54671875-57.13Q 80.66671875-57.13  80.66671875-56.74ZM 112.10671875-57.13L 111.13671875-57.13L 109.86671874999999-56.64L 108.68671875-56.64L 107.02671875-56.64L 107.02671875-56.35Q 109.17671874999999-55.76  110.74671875-55.76L 110.74671875-55.76L 112.98671875-55.76Q 113.18671875-55.76  113.18671875-56.05L 113.18671875-56.05Q 112.98671875-57.13  112.10671875-57.13L 112.10671875-57.13ZM 114.93671875-56.15L 113.86671874999999-56.15L 113.57671875-55.96L 113.57671875-55.76L 113.86671874999999-55.66Q 114.84671875000001-55.66  114.93671875-56.05L 114.93671875-56.05L 114.93671875-56.15ZM 83.29671875-54.88L 82.22671875-54.88L 82.02671875-54.69L 82.02671875-54.1Q 82.02671875-53.13  88.57671875-53.13L 88.57671875-53.13Q 91.89671875-53.13  91.89671875-53.61L 91.89671875-53.61Q 91.89671875-54.79  83.29671875-54.88L 83.29671875-54.88ZM 103.70671875-54L 103.02671875-54L 102.73671875-53.71L 102.73671875-53.61Q 102.73671875-53.13  106.24671875-53.03L 106.24671875-53.03L 107.90671875-53.13L 110.15671875000001-52.73L 110.54671875-52.73Q 111.22671875-52.73  111.22671875-53.32L 111.22671875-53.32L 111.13671875-53.32L 103.70671875-54ZM 114.84671875000001-51.86L 113.57671875-51.86L 113.18671875-51.46L 113.18671875-51.37L 113.57671875-51.07L 114.06671875-51.07Q 114.93671875-51.07  115.13671875-51.66L 115.13671875-51.66L 114.84671875000001-51.86ZM 83.98671875-51.46L 83.10671875-51.46L 82.71671875-51.17Q 82.71671875-50.78  83.20671875-50.78L 83.20671875-50.78L 85.64671875-50.68L 88.27671875-50.78L 88.37671875-50.88L 88.37671875-51.07Q 87.20671875-51.46  83.98671875-51.46L 83.98671875-51.46ZM 90.91671875-49.32L 90.72671875-49.61L 82.71671875-49.9L 82.71671875-49.71Q 82.71671875-49.02  90.13671875-49.02L 90.13671875-49.02L 90.91671875-49.22L 90.91671875-49.32ZM 104.68671875-49.32L 104.68671875-49.32L 104.19671875-49.32L 104.19671875-49.02Q 104.29671875-48.83  107.61671875-48.05L 107.61671875-48.05L 107.81671875-48.05L 107.81671875-48.24Q 106.24671875-49.32  104.68671875-49.32ZM 109.66671875-48.34L 109.66671875-48.34Q 112.30671875-47.46  114.35671875-47.46L 114.35671875-47.46L 114.74671875-47.85L 114.74671875-48.44L 114.45671875-48.73L 112.30671875-48.73Q 109.66671875-48.73  109.66671875-48.34ZM 96.09671875000001-44.82L 96.09671875000001-44.82L 96.09671875000001-44.04L 96.38671875-43.75Q 96.77671875-43.85  96.77671875-44.43L 96.77671875-44.43L 96.77671875-44.82L 96.58671875-45.51L 96.48671875-45.51Q 96.09671875000001-45.41  96.09671875000001-44.82ZM 99.70671875-42.77L 99.70671875-43.07L 99.21671875-43.46L 99.21671875-43.16L 99.60671875-42.77L 99.70671875-42.77ZM 96.77671875-42.68L 96.58671875-42.87L 96.38671875-42.87L 96.28671875-42.38L 96.28671875-41.89L 96.38671875-41.31L 96.77671875-41.31L 96.77671875-42.19L 96.77671875-42.68ZM 96.97671875-35.35L 96.77671875-36.13L 96.48671875-36.13L 96.48671875-35.35L 96.77671875-34.96L 96.97671875-34.96L 96.97671875-35.35ZM 92.08671875-23.73L 92.08671875-23.73L 92.38671875-21L 92.28671875-17.58L 92.38671875-16.6L 92.67671874999999-16.6Q 93.26671875-16.6  93.26671875-21.19L 93.26671875-21.19L 93.26671875-23.44Q 93.26671875-27.93  92.86671875-27.93L 92.86671875-27.93Q 92.18671875-27.93  92.08671875-23.73ZM 98.43671875-16.02L 98.43671875-16.02L 98.24671875-16.02L 98.14671875-15.33L 98.14671875-14.55Q 98.14671875-13.87  98.53671875-13.77L 98.53671875-13.77L 98.72671875-13.77Q 99.11671875-13.87  99.11671875-14.45L 99.11671875-14.45Q 99.02671875-16.02  98.43671875-16.02ZM 99.21671875-11.82L 99.21671875-11.82L 98.82671875-10.74Q 98.82671875-8.5  99.80671875-7.91L 99.80671875-7.91L 99.99671875-8.3L 99.99671875-9.18Q 99.90671875-11.62  99.21671875-11.82ZM 95.60671875-10.94L 95.40671875-11.13L 95.11671875-11.13L 95.11671875-9.67L 95.31671875-9.08L 95.40671875-9.08L 95.60671875-9.28L 95.60671875-10.94ZM 98.24671875-4.98L 98.24671875-4.98L 98.24671875-4.88L 98.24671875-4.3Q 98.33671875-3.91  98.92671874999999-3.52L 98.92671874999999-3.52L 99.60671875-3.52L 99.60671875-3.71Q 99.60671875-4.79  98.24671875-4.98ZM 109.08671875-3.03L 109.08671875-3.03L 109.47671875-3.03Q 113.08671875-3.61  113.08671875-4.3L 113.08671875-4.3L 112.88671875-4.49Q 109.08671875-3.52  109.08671875-3.03ZM 97.16671875-2.64L 95.79671875-4.39L 95.60671875-4.39L 95.60671875-4Q 95.89671875-1.56  97.75671875-1.56L 97.75671875-1.56L 98.72671875-1.56L 98.92671874999999-1.86L 98.92671874999999-1.95Q 98.92671874999999-2.15  97.16671875-2.64L 97.16671875-2.64Z"></path></svg>