<svg width="400" height="256" xmlns="http://www.w3.org/2000/svg" class="fl-svgdocument">

 <g>
  <title>Layer 1</title>
  <path data-uid="o_ejghiajak_6" fill="#cf1717" d="m360.1459,8.08009l0,-0.29773l-156.73351,0l-4.8285,0l-156.7297,0l0,0.29773c-17.58872,0.6298 -31.70016,18.69947 -31.70016,41.00981c0,8.51572 2.05736,16.4398 5.569,23.00504c0,0 7.2752,-7.51185 18.28341,-12.34798c16.30239,-7.14923 30.6085,-7.9279 35.34921,-7.98516l96.81812,0l0,-16.94365c0,-3.2559 2.649,-5.90489 5.90108,-5.90489c3.2559,0 5.90489,2.649 5.90489,5.90489l0,16.94365l20.60415,0l4.8285,0l65.17903,0l0,-16.94365c0,-3.2559 2.63754,-5.90489 5.89344,-5.90489c3.2559,0 5.89344,2.649 5.89344,5.90489l0,16.94365l52.27377,0c4.72162,0.05725 19.043,0.83592 35.3263,7.98516c11.0273,4.83995 18.29868,12.34798 18.29868,12.34798c3.51164,-6.56905 5.569,-14.48932 5.569,-23.00504c0.00382,-22.30653 -14.13052,-40.37619 -31.70016,-41.00981z" id="_xjmEOXZU5kbPZ9J_e2sLk"/>
  <g data-uid="o_ejghiajak_7" transform="matrix(1.58404, 0, 0, 1.58404, -281.148, -149.514)" id="_7IblQVCN1HFjrArLGTdXZ">
   <path data-uid="o_ejghiajak_8" fill="#083b66" d="m381.4872,213.67991c-4.27714,-4.26991 -9.56393,-6.44343 -15.70615,-6.44343c-5.9639,0 -11.15913,2.1711 -15.44109,6.44343c-4.28437,4.26991 -6.45547,9.46032 -6.45547,15.4435c0,6.15909 2.16869,11.44106 6.45547,15.71338c4.28196,4.26991 9.48201,6.44343 15.44109,6.44343c6.14222,0 11.42419,-2.1711 15.70615,-6.44343c4.28678,-4.26991 6.45547,-9.5543 6.45547,-15.71338c0,-5.98318 -2.16387,-11.176 -6.45547,-15.4435zm-9.20008,21.94717c-1.81447,1.80483 -3.97353,2.71087 -6.50367,2.71087c-2.5205,0 -4.69642,-0.90603 -6.50126,-2.71087s-2.70605,-3.96871 -2.70605,-6.50126c0,-2.50845 0.90121,-4.6892 2.70605,-6.49644c1.80483,-1.78556 3.97835,-2.70605 6.50126,-2.70605c2.52773,0 4.6892,0.92049 6.50367,2.70605c1.80724,1.80724 2.69641,3.98798 2.69641,6.49644c0.00241,2.53255 -0.88916,4.69642 -2.69641,6.50126z" id="_vgoG8qgrtfQJmT090aSPZ"/>
   <path data-uid="o_ejghiajak_9" fill="#083b66" d="m248.54082,213.94875c-4.27473,-4.17835 -9.46755,-6.30367 -15.43386,-6.30367c-6.14222,0 -11.43142,2.12532 -15.71579,6.30367c-4.28437,4.2169 -6.45547,9.4555 -6.45547,15.57844c0,5.96872 2.1711,11.17118 6.44825,15.44109c4.27955,4.28919 9.57116,6.46752 15.72302,6.46752c5.97836,0 11.16395,-2.17592 15.43386,-6.4627c4.28437,-4.26991 6.45547,-9.46996 6.45547,-15.44591c-0.00241,-6.13017 -2.17592,-11.37359 -6.45547,-15.57844zm-8.94224,22.10621c-1.80001,1.80483 -3.96871,2.68195 -6.49162,2.68195c-2.53255,0 -4.6916,-0.87712 -6.49644,-2.68195c-1.80483,-1.81206 -2.71328,-3.97112 -2.71328,-6.52776c0,-2.51086 0.90844,-4.66992 2.71328,-6.47716c1.80724,-1.81447 3.9663,-2.73255 6.49644,-2.73255c2.5205,0 4.6916,0.91808 6.49162,2.73255c1.80724,1.80724 2.71087,3.9663 2.71087,6.47716c0,2.55665 -0.90362,4.7157 -2.71087,6.52776z" id="_UKUGJy1SwHdqsc492iVvZ"/>
   <path data-uid="o_ejghiajak_10" fill="#083b66" d="m420.39473,215.3121l-14.22662,-57.93301c-1.28917,-5.17113 -2.15423,-10.79286 -9.82418,-17.58087c-6.72777,-5.95186 -16.95195,-5.6892 -19.65799,-5.6892l-98.14057,0c-3.62413,0 -7.7591,1.81206 -9.56393,5.17113l-20.76644,32.50629l-37.91839,0c-8.66754,0 -15.70615,6.4627 -15.70615,14.44349l0,2.31327l0.03614,0c0,2.29399 0,6.85307 0,6.85307l-0.00482,10.20731l-6.49644,0l0,12.73264c0,4.49642 2.25544,6.76391 6.77596,6.76391l6.22415,0c0.54217,-7.57597 4.02172,-14.03626 10.41936,-19.36161c6.4121,-5.31571 13.58806,-7.97838 21.52789,-7.97838c7.95187,0 15.16398,2.66026 21.66042,7.97838c6.50608,5.32535 10.02177,11.78805 10.57117,19.36161l68.77647,0c0.53253,-7.57597 4.0169,-14.07963 10.41695,-19.49655c6.4121,-5.41691 13.58324,-8.1085 21.52789,-8.1085c7.94705,0 15.15675,2.69159 21.66524,8.1085c6.49644,5.41691 10.01213,11.92058 10.55189,19.49655l15.12302,0c5.73258,-0.2241 8.06031,-4.61691 7.02897,-9.78803zm-118.27567,-46.54737c0,3.42412 -1.70845,5.14703 -5.15185,5.14703l-30.49423,0c-1.86749,0 -2.81207,-0.93254 -2.81207,-2.79038c0,-0.65302 0.16145,-1.17109 0.46506,-1.63616l11.24347,-19.53751c1.20001,-1.93014 2.77111,-2.49882 4.9398,-2.49882l16.65556,0c3.44099,0 5.15185,1.7205 5.15185,5.13739l0.00241,16.17845l0,0zm48.61486,0.72531c0,2.45544 -1.97833,4.43377 -4.42654,4.43377l-30.83158,0c-2.45544,0 -4.42895,-1.97833 -4.42895,-4.43377l0,-17.76159c0,-2.45303 1.97592,-4.42654 4.42895,-4.42654l30.83158,0c2.45062,0 4.42654,1.97351 4.42654,4.42654l0,17.76159zm35.45812,17.94955c-3.43135,0 -6.20487,-2.7687 -6.20487,-6.20005c0,-3.43376 2.77352,-6.20728 6.20487,-6.20728c3.42894,0 6.20728,2.77352 6.20728,6.20728c0,3.43135 -2.77834,6.20005 -6.20728,6.20005z" id="_o7C0xAaNe3rT3om5-d-wY"/>
  </g>
 </g>
</svg>