<svg width="550" height="200" xmlns="http://www.w3.org/2000/svg" class="fl-svgdocument">

 <g>
  <title>Layer 1</title>
  <path d="m40.60242,27.92334l0,0l7.33811,-1.06093q7.53704,0 11.86918,7.75807l0,0l1.50299,6.91816q-0.41995,4.08901 -4.75209,10.78614l0,0q-2.80705,2.80705 -8.62007,2.80705l0,0q-13.61529,0 -16.8423,-4.11111l0,0q-3.2491,-4.31004 -3.02808,-12.0681l0,0q-0.86201,0 -0.86201,-0.44206l0,0l0,-0.44206q6.47611,-10.14516 13.39427,-10.14516zm-4.33214,5.41517l0,0l0,0.19892q7.33811,-0.86201 7.33811,-1.94504l0,0l-1.06093,-0.41995q-6.27718,1.08303 -6.27718,2.16607zm3.66906,6.25508l0,0l0.22103,0l1.30406,0.22103l0.41995,0q2.3871,0 3.02808,-1.74612l0,0l-0.22103,-0.41995l-2.58602,0q-1.72401,0 -2.16607,1.94504zm15.75926,-1.94504l-0.22103,0l-0.64098,1.08303l0,0.86201l0.22103,0l0.64098,-0.86201l0,-1.08303zm-5.39307,7.11709l0,0l0,0.64098l0.86201,0q1.50299,0 2.3871,-1.50299l0,0l0,-0.64098l-0.44206,0q-1.50299,0 -2.80705,1.50299zm-1.50299,3.89008l-3.2491,0l-0.64098,0.64098l0,0.44206l3.89008,0l0.64098,-0.44206l-0.64098,-0.64098zm-31.09857,20.93131l0.44206,-0.41995l0.64098,0q1.72401,1.50299 4.33214,1.50299l0,0l2.80705,-1.30406q29.35245,0 29.35245,1.74612l0,0l0.19892,1.50299l0,3.66906q1.94504,4.31004 1.94504,8.20012l0,0l0,3.44803q-2.58602,35.18758 -3.44803,56.98089l0,0q-0.41995,1.30406 -0.86201,4.55317l0,0q0.22103,0.86201 1.94504,0.86201l0,0l0.64098,0q11.67025,0 11.67025,2.80705l0,0l-0.22103,0.41995l0,1.30406q2.58602,5.17204 2.58602,16.40024l0,0l0.86201,8.62007l-0.64098,0.44206l-9.50418,0.44206l-21.59439,0q-24.15831,0 -24.15831,-3.89008l0,0q0,-2.3871 -1.30406,-4.75209l0,0q0.64098,-1.50299 2.16607,-2.3871l0,0l0.64098,0q0.86201,0.88411 1.94504,0.88411l0,0l0.44206,0q6.25508,0 14.87515,-1.08303l0,0l0,-0.44206q-18.54421,-1.28196 -18.54421,-3.02808l0,0l-0.22103,-1.72401l0,-2.36499l-0.44206,-5.6141q0,-2.16607 16.20132,-2.16607l0,0q2.14397,0 2.14397,-9.70311l0,0l2.58602,-56.75987l-0.41995,0q-6.03405,0 -6.03405,-0.88411l0,0q0,-0.19892 0.64098,-0.64098l0,0q-12.95221,0 -12.95221,-3.02808l0,0q-0.86201,-0.19892 -0.86201,-1.72401l0,0l1.08303,-2.58602q0,-0.86201 -1.30406,-2.36499l0,0q1.72401,-1.72401 2.36499,-6.91816l0,0zm3.89008,3.89008l0,0l0,0.86201l1.08303,0q5.6141,0 5.6141,-0.86201l0,0l-0.44206,-0.86201l-0.64098,0q-5.6141,0 -5.6141,0.86201zm30.01554,-0.86201l-0.66308,-0.64098l-0.64098,0.64098l0.86201,0.64098l0.44206,0l0,-0.64098zm-25.26344,3.89008l0,0l-3.89008,0l0,0.64098q0,0.86201 3.02808,0.86201l0,0l2.36499,0l0.66308,0l7.11709,0q3.227,0 3.227,-1.08303l0,0l0,-0.22103q0,-1.06093 -12.51016,-0.19892zm22.23537,0.19892l-3.02808,0l-1.94504,-0.19892l0,0.41995q1.52509,0 3.66906,2.16607l0,0l0.44206,0q0.41995,0 0.41995,-0.64098l0,0l0.44206,0q0.86201,0 1.08303,1.94504l0,0l0.41995,0l3.02808,-2.16607l0,-1.30406l-4.53106,-0.22103zm-3.89008,12.0902l0,0l1.08303,3.2491l-1.50299,3.89008q0.86201,1.94504 1.50299,1.94504l0,0l0.22103,0l0.41995,-1.30406l0,-1.30406q0,-7.75807 2.3871,-7.75807l0,0l0.64098,-0.86201l0,-0.86201l-0.64098,-0.66308l-1.30406,0q-2.80705,0 -2.80705,3.66906zm-6.69713,20.51135l0,0l-0.64098,27.84947q0.22103,1.50299 0.64098,1.50299l0,0q0.66308,0 0.86201,-1.94504l0,0l-0.19892,-3.227q1.08303,-1.08303 2.36499,-8.64218l0,0l0,-1.28196l-0.41995,-3.02808q1.28196,-1.08303 1.28196,-1.50299l0,0q-0.86201,-2.3871 -0.86201,-4.75209l0,0l0,-0.44206q0.86201,0 2.16607,-24.18041l0,0q-0.64098,-1.72401 -1.30406,-1.72401l0,0q-3.227,0 -3.89008,21.37336zm10.58722,-18.98626l0,0l-0.86201,0.19892l0,1.30406q0,1.30406 1.08303,1.94504l0,0l0.64098,0l0.64098,-0.86201l0,-1.08303q-0.41995,-1.08303 -1.50299,-1.50299zm-0.86201,36.69057l-0.22103,-1.50299l-1.08303,0q-1.72401,7.97909 -1.72401,11.86918l0,0l0.22103,0q1.08303,0 2.80705,-8.8632l0,0l0,-1.50299zm-4.31004,18.76524l0,0l0,1.52509l0.41995,0q1.08303,-0.44206 1.08303,-2.58602l0,0l0,-1.52509l-0.64098,0q-0.44206,0 -0.86201,2.58602zm0.64098,3.2491l-0.22103,0l-0.64098,0.86201l0,1.08303l0.64098,0l0.86201,-0.64098l0,-0.66308l-0.64098,-0.64098zm18.34528,5.17204l-1.30406,0l-0.64098,0.22103q1.30406,1.08303 4.75209,1.30406l0,0l0,-0.66308q0,-0.86201 -2.80705,-0.86201l0,0zm-0.44206,9.08423l0,0l-2.58602,0.64098q0.44206,2.58602 3.89008,2.58602l0,0l0.64098,0l0,-0.64098l-0.41995,-0.66308q0,-0.19892 1.72401,-1.28196l0,0l0,-1.08303q0,-1.50299 -0.86201,-1.72401l0,0l-0.86201,0q-0.66308,0.22103 -1.52509,2.16607zm-41.22163,-1.94504l0,0l-1.50299,0.41995l0,0.22103q1.72401,1.72401 13.37216,1.94504l0,0l1.52509,0q1.72401,0 2.14397,-1.08303l0,0l0,-0.44206q-9.06213,-1.06093 -15.53823,-1.06093zm20.29033,2.58602l0,0l0.86201,1.08303q1.94504,0 1.94504,-2.16607l0,0l-1.08303,0q-1.28196,0 -1.72401,1.08303zm20.73238,4.31004l-0.44206,0l-0.64098,0.86201l0,0.44206l0.41995,0l0.66308,-0.86201l0,-0.44206zm-14.4773,1.50299l-2.58602,-0.19892l-2.80705,0.19892l-3.02808,0l0,0.88411l3.02808,0.19892l6.25508,-0.41995l0,-0.66308l-0.86201,0zm19.87037,7.13919l-0.44206,0l-0.86201,0.64098l0,0.64098l1.30406,0l0.22103,-0.64098l-0.22103,-0.64098zm27.40845,-143.33634l0,0l16.62127,-2.58602l0.64098,0q3.89008,0 16.20132,2.58602l0,0q16.17921,0 42.72462,8.8632l0,0q11.44923,8.8411 17.48328,21.15233l0,0q2.16607,6.69713 2.16607,13.37216l0,0l0,0.44206q0,9.70311 -7.97909,21.57229l0,0q-4.53106,5.83513 -13.81422,10.80825l0,0q-2.3871,2.36499 -10.36619,6.89606l0,0q-3.44803,2.80705 -3.44803,3.89008l0,0q18.54421,26.98746 24.82139,34.96655l0,0q6.03405,10.36619 11.20609,10.36619l0,0q16.42234,0.86201 16.42234,4.75209l0,0l1.72401,10.14516q-0.44206,1.06093 -1.72401,1.06093l0,0l-1.72401,0l-11.89128,2.80705q-1.72401,-2.36499 -13.59319,-2.36499l0,0q-11.64815,0 -11.64815,-1.30406l0,0q-0.22103,-3.227 -1.94504,-8.8411l0,0l-0.22103,-1.50299l0,-0.88411q0,-1.92294 -6.03405,-9.92414l0,0q-1.08303,-4.75209 -2.3871,-5.6141l0,0q-4.95102,-6.89606 -14.67623,-27.82736l0,0q-2.36499,-2.3871 -3.89008,-2.3871l0,0l-13.37216,3.02808q-9.28316,0 -9.28316,5.6141l0,0l0,3.66906q0,27.40741 4.11111,27.40741l0,0l2.80705,0.22103l2.36499,0l5.17204,-1.08303q1.30406,2.80705 1.30406,9.28316l0,0l-0.86201,2.16607l0.22103,3.86798q0,1.94504 -15.11828,4.11111l0,0l-0.64098,-0.44206l-16.8423,-0.41995l-12.0902,0q-2.14397,0 -2.14397,-5.39307l0,0l0,-3.66906q0,-8.20012 3.86798,-8.20012l0,0l9.72521,-2.16607l0.41995,-3.2491q-1.50299,-47.03465 -3.227,-61.73298l0,0q-0.22103,-47.25568 -1.30406,-47.25568l0,0l-0.86201,-0.44206l-14.67623,2.80705l-0.86201,-0.22103l0.44206,-1.92294l-2.60812,0l0,-0.66308l-0.41995,0l0.41995,-2.58602l0,-1.30406q0,-1.28196 -1.72401,-4.31004l0,0q3.02808,-0.41995 3.02808,-1.72401l0,0l-1.30406,-1.72401q0,-1.50299 18.78734,-4.11111zm19.42832,1.52509l-0.86201,0l-0.64098,0.64098l0.64098,0.64098l3.66906,0l0,-0.64098l-2.80705,-0.64098zm3.66906,5.39307q-3.44803,0.22103 -3.44803,1.08303q0,0.86201 1.72401,0.86201l0,0l0.41995,0q5.83513,-0.22103 6.27718,-1.30406l0,0l-0.66308,-0.64098l-4.31004,0zm14.4552,2.80705l0,0l0.86201,0.41995l2.16607,0q1.94504,0 2.36499,-1.06093l0,0q0,-0.88411 -2.58602,-0.88411l0,0q-2.16607,0 -2.80705,1.52509zm26.5454,0l0,0l-0.41995,0.22103l0,0.19892q0.86201,0.86201 2.36499,0.86201l0,0l0,-0.19892q0,-0.44206 -1.94504,-1.08303zm-80.27719,3.227l0,0l0,0.86201l0.64098,0.22103q1.50299,0 2.58602,-1.72401l0,0l0,-1.08303l-0.86201,-0.86201l-1.30406,0q-0.86201,0 -1.06093,2.58602zm87.19535,-0.19892l0,0l0,0.19892q4.08901,2.80705 10.14516,7.33811l0,0l0.64098,0l0,-1.06093q0,-3.2491 -10.78614,-6.47611zm-50.94684,2.58602l0,0l0,1.72401l1.72401,13.81422q-1.28196,22.43429 -2.14397,24.18041l0,0l-1.08303,1.50299l0,2.58602l1.50299,11.00717q0,7.78017 2.16607,7.78017l0,0l0.41995,0q16.42234,-2.16607 16.42234,-3.89008l0,0q11.00717,-4.11111 15.53823,-6.69713l0,0q9.48208,0 22.87635,-13.37216l0,0q3.66906,-7.33811 3.66906,-13.59319l0,0l0,-2.3871q0,-2.16607 -6.05615,-11.42712l0,0q-11.00717,-12.53226 -20.93131,-12.53226l0,0l-7.33811,-0.41995q-17.26225,1.72401 -26.76643,1.72401zm-13.37216,0.41995l-1.52509,0l-0.64098,0.66308l0,4.72999l1.08303,11.89128l0.22103,0l1.28196,-16.8423l-0.41995,-0.44206zm68.20909,4.11111l-0.44206,0l-0.41995,0.64098l1.06093,1.08303l0.66308,0l0,-0.44206l-0.86201,-1.28196zm-56.98089,7.55914l-0.44206,0l-0.22103,0.86201l0,0.86201q0.22103,1.50299 0.66308,1.50299l0,0l0.64098,-0.64098l0,-1.72401l-0.64098,-0.86201zm-6.69713,7.11709l0,0l-1.52509,14.4552l0.66308,0.64098l0.86201,0l0.64098,-0.86201l0,-11.42712q0,-2.80705 -0.64098,-2.80705zm76.18818,4.53106l-0.22103,0l-0.64098,0.41995l0,1.52509l0.64098,0.41995l0.22103,0l0.64098,-0.64098l0,-0.86201l-0.64098,-0.86201zm-81.1613,6.25508l-0.41995,-0.64098l-0.66308,0l0,0.64098l0.66308,0.44206l0.41995,0l0,-0.44206zm82.46536,5.83513l0,0l-0.66308,0l0,1.08303l-1.50299,3.227l0,0.86201l1.30406,1.52509q1.50299,0 1.72401,-4.55317l0,0q-0.22103,-2.14397 -0.86201,-2.14397zm-5.19415,10.78614l0,0q0.22103,1.08303 1.52509,1.94504l0,0l0.41995,0q2.3871,-1.94504 2.3871,-3.89008l0,0l-0.44206,-0.22103q-3.02808,0 -3.89008,2.16607zm-5.81302,2.16607l0,0l0,0.64098l0.86201,0q1.72401,-0.64098 1.72401,-1.72401l0,0l-0.66308,0q-1.50299,0 -1.92294,1.08303zm-13.61529,4.53106l0,0l0,0.64098l1.94504,0q1.08303,-1.28196 4.75209,-3.02808l0,0l0.22103,-0.19892l0,-0.66308q-3.02808,0 -6.91816,3.2491zm-52.86978,-1.52509l-0.66308,-0.86201l-0.64098,0.86201l0,0.22103l0.64098,0.66308l0.66308,-0.66308l0,-0.22103zm42.94565,7.13919l0,0l0,0.64098q6.05615,-1.30406 7.97909,-4.11111l0,0l0,-0.19892l-0.41995,0q-6.25508,1.94504 -7.55914,3.66906zm18.12426,-3.66906l-0.41995,0l-0.64098,0.41995l0,0.44206l1.06093,0l0,-0.86201zm-4.53106,3.44803l0,0l0.22103,0.22103l0.22103,0l1.50299,-0.86201l0,-0.66308l-0.19892,0q-1.52509,0.44206 -1.74612,1.30406zm-23.2963,3.89008l0,0l0,0.22103l1.50299,0q3.02808,-0.44206 3.02808,-0.88411l0,0l-0.44206,-0.41995l-0.41995,0q-3.66906,0.41995 -3.66906,1.08303zm-8.0012,1.72401l0,0l0,0.22103l0.66308,0q3.44803,0 3.44803,-1.08303l0,0l0,-0.44206l-0.64098,0q-1.08303,0 -3.47013,1.30406zm14.25627,1.94504l0,0l0.41995,0.22103l0.22103,0q5.39307,-1.30406 5.39307,-2.3871l0,0l-0.19892,-0.41995l-0.22103,0q-4.53106,0.86201 -5.6141,2.58602zm4.53106,12.95221l0,0l0,0.19892q0,1.74612 1.72401,3.02808l0,0l0.86201,0l0,-0.41995q-1.50299,-2.80705 -2.58602,-2.80705zm-43.80765,27.40741l-0.22103,0l-0.86201,0.86201l0,2.16607l0.86201,0l0.41995,-2.16607l-0.19892,-0.86201zm4.53106,12.51016l0,0l0,0.22103l0.86201,0.86201l0.41995,0q0.86201,0 1.30406,-3.02808l0,0l0,-0.86201l-0.44206,-1.28196l-0.64098,0q-0.86201,0 -1.50299,4.08901zm-4.11111,-3.66906l0,0l-0.41995,0l-0.44206,3.66906l0,0.22103l0.86201,0l0.86201,-0.64098l0,-0.86201q0,-2.16607 -0.86201,-2.3871zm21.79331,5.19415l-0.64098,0l-0.22103,0.19892l0,0.88411l0.22103,0l0.64098,-0.88411l0,-0.19892zm50.94684,1.08303l-1.08303,0l-0.86201,1.06093l0.86201,1.08303l0.22103,0l0.86201,-1.08303l0,-1.06093zm19.87037,1.06093l0,0l0,1.08303l1.28196,0.22103l1.08303,0l0.64098,-0.64098l0,-0.66308l-0.64098,-0.64098l-0.86201,0q-1.50299,0.22103 -1.50299,0.64098zm-72.74015,3.66906l0,0l0.41995,0.22103l0.86201,0l0.86201,-0.64098l0,-0.44206l-0.41995,-0.64098q-1.72401,0 -1.72401,1.50299zm56.31781,-1.94504l0,0l-2.36499,0l0,0.22103l0.86201,0.86201l3.66906,0l0,-0.19892q-0.22103,-0.88411 -2.16607,-0.88411zm16.8423,4.11111l0,0l0.64098,1.08303l2.80705,0q1.94504,0 2.3871,-1.08303l0,0q0,-0.86201 -1.72401,-0.86201l0,0l-2.3871,0q-1.72401,0.44206 -1.72401,0.86201zm-27.18638,0l-1.52509,0l-0.41995,0.44206q0,0.86201 1.08303,0.86201l0,0l1.06093,-0.44206l-0.19892,-0.86201zm94.10039,-105.54064l0,0q9.06215,0 22.01436,7.75807l0,0q11.00715,8.20012 11.00715,11.2282l0,0q8.6422,18.12426 8.6422,21.79331l0,0l0.22103,1.72401q-3.24913,7.55914 -3.24913,10.36619l0,0l-1.30404,0.22103l-18.34528,0q-2.58602,0 -6.25508,0.64098l0,0q-31.07649,-2.58602 -43.58665,-2.58602l0,0l-4.55314,0q-2.58604,3.89008 -2.58604,5.6141l0,0q1.52509,2.36499 1.52509,7.55914l0,0q0,8.20012 2.58604,9.70311l0,0l0.22101,1.08303l0,0.22103l-1.30406,-0.64098l0,0.64098l1.94506,2.16607q0,2.78495 3.89008,7.11709l0,0q7.11706,12.51016 15.53823,15.53823l0,0q7.11709,2.36499 16.17921,2.36499l0,0q1.52507,0 6.25506,-2.80705l0,0q3.89011,-0.86201 16.42234,-14.01314l0,0l0,-0.66308q0,-0.41995 -3.02805,-0.86201l0,0l-0.44208,-1.08303q4.97312,-9.48208 11.86918,-12.51016l0,0q1.94504,1.94504 8.00122,6.03405l0,0q4.75209,7.33811 12.73116,17.28435l0,0l0,0.86201q-6.91816,9.06213 -9.92414,9.06213l0,0l-0.86201,0q0,-4.75209 -5.8351,-5.39307l0,0q-1.08303,0 -9.50421,7.11709l0,0q-4.95102,3.89008 -17.04122,7.33811l0,0q-14.03525,2.80705 -19.87037,2.80705l0,0l-12.28913,-4.31004q-10.36619,0 -19.00837,-11.2282l0,0q-3.66906,-3.89008 -6.03405,-9.28316l0,0q0,-1.72401 -4.75207,-17.92533l0,0q-1.50299,-6.25508 -1.50299,-12.0681l0,0l0,-0.22103q0,-28.71147 17.26223,-50.30586l0,0q2.16609,-5.39307 9.92414,-7.97909l0,0q5.19415,-1.50299 12.53226,-2.36499l0,0q1.92296,-0.86201 12.51016,0zm-19.4283,4.08901l-0.41997,0.44206l0,0.19892l0.41997,0q3.44801,0 12.95221,-2.36499l0,0q1.94502,-0.22103 1.94502,-1.08303l0,0l-0.64096,-0.64098l-0.22105,0q-6.25506,0 -14.03522,3.44803l0,0zm-9.06215,4.11111l0,0l0,0.22103l0.64098,0.41995l0.22103,0q4.31004,-1.08303 4.31004,-2.16607l0,0l0,-1.28196l-0.86199,-0.86201l-0.41997,0q-3.89008,1.28196 -3.89008,3.66906zm33.24254,-2.16607l0,0l-6.47611,0l0,0.44206q0,0.86201 8.8411,1.28196l0,0l0.22105,0l0,-0.86201q0,-0.41995 -2.58604,-0.86201zm-15.33929,3.2491l0,0l0,0.19892q0,0.86201 8.86318,2.16607l0,0l0.41997,-0.22103l0,-0.86201q-1.72404,-2.36499 -5.81302,-2.36499l0,0l-0.6631,0q-2.80703,0.22103 -2.80703,1.08303zm13.17324,1.28196l0,0l0,0.22103q12.31121,7.11709 13.17324,7.11709l0,0l0.22101,0l2.14399,-0.86201l1.30404,0.44206l0.22105,-0.44206l0,-0.22103q-0.86201,-0.64098 -3.66908,-1.28196l0,0l-4.33214,-1.94504q-1.72401,-3.66906 -6.89606,-3.66906l0,0l-0.64098,0q-1.52507,0.22103 -1.52507,0.64098zm-25.6834,6.25508l0,0q2.16605,-1.72401 8.64215,-3.66906l0,0l0,-0.41995l-0.22103,-0.44206l-2.16607,0q-6.25506,1.72401 -6.25506,4.53106zm-11.42712,14.25627l0,0l0,0.64098q0,2.3871 39.27657,5.39307l0,0l2.16607,0.66308l2.78497,-0.22103q8.64215,2.80705 11.67025,2.80705l0,0q0,0.64098 1.28196,1.08303l0,0q1.30406,-1.94504 1.30406,-3.66906l0,0l0,-4.11111q0,-2.80705 -10.78614,-12.51016l0,0q-4.97312,-4.97312 -11.22822,-5.6141l0,0l-7.33811,-1.30406q-17.92533,3.66906 -23.53941,8.8632l0,0q-2.36502,4.53106 -5.592,7.97909zm2.36497,-12.95221l0,0l0,0.41995l0.41997,0q2.80705,-0.64098 2.80705,-1.50299l0,0l0,-0.22103l-1.06095,0q-1.08303,0 -2.16607,1.30406zm51.58782,3.02808l0,0q0.41995,1.72401 1.94506,1.72401l0,0l0.41993,0l0.44208,-0.64098l0,-1.30406l-0.86201,-1.08303q-1.94506,0 -1.94506,1.30406zm-54.8369,1.08303l-0.86203,0l-0.41995,0.64098l0,0.22103l0.41995,0l0.86203,-0.66308l0,-0.19892zm60.67203,2.14397l-0.44206,-0.41995l-0.86199,0q2.36497,7.11709 3.44801,7.75807l0,0l0.86201,0l0.6631,-0.41995q-1.74614,-6.91816 -3.66908,-6.91816l0,0zm-59.58902,3.44803l0,0q1.30408,-0.19892 1.30408,-1.72401l0,0l0,-0.19892q-1.30408,0.41995 -1.30408,1.92294zm67.12608,5.83513l-0.641,0l-0.64098,0.44206l0,1.50299l0.64098,0.86201q0.86201,-0.22103 0.86201,-1.50299l0,0l0,-0.86201l-0.22101,-0.44206zm-69.49107,3.02808l0,0l0,0.86201l0.41995,0.41995l0.44206,0q1.50299,-0.64098 2.58604,-2.36499l0,0l0,-0.64098l-1.08306,0q-1.28194,0 -2.36499,1.72401zm-8.86318,-1.30406l0,0q-1.72404,1.72401 -3.00597,8.64218l0,0l0.41993,0q1.30406,0 3.89011,-7.55914l0,0q-0.41997,-1.08303 -1.30406,-1.08303zm22.03642,2.58602l0,0l0,0.66308q4.08903,2.80705 14.87515,2.80705l0,0l1.94504,0l2.80705,-0.22103l0,-0.86201q-8.8411,-1.94504 -19.62724,-2.3871zm39.49762,6.27718l0,-0.66308l-0.66308,0l0,0.66308l0.66308,0zm-41.66369,1.06093l0,0l0,0.44206q4.31006,1.08303 22.87637,2.16607l-0.00002,0l0,0.19892l0,0.22103l-4.53106,0.64098q0,0.66308 5.6141,0.66308l0,0q9.06215,0 9.06215,-0.86201l0,0q0,-2.16607 -33.02153,-3.47013zm-20.93128,1.94504l-0.86203,-0.41995l-1.08301,0l0,1.28196q0,1.30406 0.64098,1.30406l0,0q1.08301,0 1.30406,-2.16607l0,0zm16.62125,0.22103l0,-0.22103l-1.08303,0.22103l0,1.30406l1.08303,0l0,-0.86201l0,-0.44206zm-6.91814,1.50299l0,0l0,0.22103l0.22101,0l3.66908,-0.41995l0,-0.44206l-0.641,-0.86201l-0.66308,0q-1.94504,0 -2.586,1.50299zm52.44983,0.44206l0,0q0,0.86201 3.89006,0.86201l0,0l1.94506,-0.22103l0,-0.41995q0,-0.86201 -4.11111,-0.86201l0,0q-1.72401,0.41995 -1.72401,0.64098zm-64.09798,5.6141l0,0l0,0.64098l0,0.22103q-0.22105,0.64098 -0.22105,3.02808l0,0l0,0.86201q0,3.89008 2.16609,6.89606l0,0l0.1989,0q0,-10.36619 -2.14394,-11.64815zm4.31004,19.20729l-0.41997,-0.44206l-0.66306,0l0,0.44206l0.66306,0.44206l0.41997,0l0,-0.44206zm1.08301,3.2491l0,0l-0.22101,0.19892l0,0.44206q0.86199,3.44803 2.586,3.44803l0,0l0,-0.22103l0,-0.41995q0,-1.72401 -2.36499,-3.44803zm70.35306,1.92294l0,0l0.44208,0.66308l1.08303,0q1.28196,0 1.50299,-0.86201l0,0l-0.86201,-0.86201l-0.22105,0q-1.50296,0 -1.94504,1.06093zm-4.95099,12.53226l0,0l0.41995,0.22103l0.22103,0q2.38708,0 3.02805,-2.80705l0,0l0,-0.44206q-2.38708,0 -3.66903,3.02808zm15.09618,-0.44206l0,0l0.22103,0.22103l0.66306,0q1.28196,-0.86201 1.28196,-2.36499l0,0l-0.64098,0q-1.52507,0.86201 -1.52507,2.14397zm7.55914,-2.14397l0,0l-0.22103,0l0,0.41995q0.66306,2.58602 1.94504,2.58602l0,0l0.22101,0l0.44208,-0.41995l0,-0.22103q-0.44208,-2.36499 -2.3871,-2.36499zm-12.51018,4.53106l0,0l0.64098,0.41995q3.2491,-1.08303 3.2491,-2.80705l0,0l0,-0.41995l-0.22101,0q-3.0281,0 -3.66908,2.80705zm-16.84227,4.75209l0,0l0.44203,0q1.72401,-0.66308 1.94504,-2.16607l0,0l-0.22103,-0.22103q-2.16605,1.30406 -2.16605,2.3871zm12.73116,1.06093l0,0l0.86201,0q2.16607,-1.94504 2.16607,-2.80705l0,0l-0.22101,0q-2.80707,0.86201 -2.80707,2.80705zm-61.29091,1.94504l0,0l-0.641,0l0,0.86201q0.41997,1.08303 3.66906,2.3871l0,0l0.86203,0.64098q-2.3871,-3.66906 -3.89008,-3.89008zm15.09618,0.86201l0,0l-0.19892,0l0,0.22103q0,0.86201 4.53106,1.94504l0,0l0.22101,-0.22103l0,-0.41995q-2.80705,-1.52509 -4.55314,-1.52509zm12.75329,3.02808l0,-0.64098l-0.6631,0l0,0.64098l0.6631,0zm22.43429,2.58602l0,0q2.16605,0 3.47013,-3.227l0,0l-0.6631,0q-2.80703,1.50299 -2.80703,3.227zm-15.09618,2.16607l0,0l-4.53109,-0.44206l-0.86201,0q-1.94502,0 -2.16607,0.86201l0,0l0,0.44206l0.86201,0.64098l3.89011,0q6.67503,0 15.75924,-2.36499l0,0q-0.44203,-1.30406 -2.6081,-1.30406l0,0l-1.06095,0q-5.19415,0 -9.28313,2.16607zm53.08701,-101.00957l3.44803,-9.72521l0.44206,-0.41995q4.97312,0.86201 10.36619,0.86201l0,0l17.6822,0l0.66308,0.64098q-1.30406,3.89008 -1.30406,6.03405l0,0l0,3.66906q0.86201,6.05615 3.44803,6.05615l0,0q1.30406,-2.3871 8.64218,-4.53106l0,0q17.48328,-7.55914 28.49045,-7.55914l0,0q7.33811,0 15.75926,6.47611l0,0q6.25508,2.36499 12.0902,10.14516l0,0q8.8411,14.03525 8.8411,33.02151l0,0l0,1.72401l-1.50299,15.53823l1.50299,11.2282l-2.14397,10.14516l0,0.44206l0,1.72401l8.20012,0.41995l3.66906,0q3.66906,0 4.31004,0.66308l0,0q-0.86201,15.73716 -3.227,15.73716l0,0q-4.33214,2.60812 -9.28316,2.60812l0,0l-4.53106,0q-10.36619,0 -21.81542,2.80705l0,0q-7.55914,-1.08303 -7.55914,-7.55914l0,0l-0.19892,-7.78017q0,-7.11709 3.66906,-10.34409l0,0q1.94504,-10.58722 4.53106,-19.22939l0,0l1.28196,-19.20729q0.66308,0 0.66308,-4.75209l0,0q0,-5.81302 -9.28316,-16.62127l0,0q-7.13919,-3.00597 -8.20012,-3.00597l0,0q-12.53226,0 -22.4564,10.56512l0,0q-0.86201,0 -10.56512,10.58722l0,0q-3.02808,2.36499 -3.02808,14.4552l0,0q0.41995,21.79331 1.50299,21.79331l0,0q8.64218,1.52509 8.64218,3.2491l0,0l0,0.86201l-4.75209,-0.22103l-3.44803,0.22103l0,0.86201q0,0.86201 8.20012,2.16607l0,0q1.50299,1.50299 1.50299,4.95102l0,0l0,0.44206q0,5.17204 -2.16607,11.00717l0,0l-25.02031,0.22103q-3.66906,0 -5.39307,-3.66906l0,0q-0.88411,-4.11111 -1.94504,-15.98029l0,0q0,-1.08303 6.47611,-2.3871l0,0l1.06093,-1.50299l0,-0.22103q0,-1.28196 -1.72401,-3.66906l0,0l0,-6.67503l0,-12.31123l0.86201,-19.84827q0,-20.29033 -1.72401,-20.29033l0,0l-1.08303,0l-10.14516,1.28196q-1.50299,0 -4.08901,-2.58602l0,0l0,-0.86201q1.08303,-1.72401 1.08303,-3.66906l0,0l-0.44206,-7.97909zm22.23537,-5.41517l0,-0.41995l-17.7043,2.80705l0,0.41995q0,0.66308 3.2491,0.86201l0,0q14.03525,0 14.03525,-1.92294l0,0l0.86201,-1.30406l0,-0.44206l-0.44206,0zm42.94565,3.66906l0,0l0,0.22103q1.52509,0 5.19415,2.58602l0,0l2.36499,0.66308l6.91816,-0.22103l0.19892,-0.44206l0,-0.19892q-0.19892,-1.30406 -2.36499,-1.30406l0,0l-0.86201,0l-2.16607,0.44206q-4.75209,-2.80705 -6.89606,-2.80705l0,0q-1.94504,0 -2.3871,1.06093zm-14.67623,3.89008l0,0l0,0.22103l0.44206,0.64098q10.14516,-2.58602 10.14516,-3.86798l0,0l-0.44206,0q-4.75209,0 -10.14516,3.00597zm-41.64158,0.22103l0,0l0.64098,0.64098l0.41995,0q2.80705,-0.19892 2.80705,-1.28196l0,0l-1.06093,-0.22103q-2.80705,0 -2.80705,0.86201zm2.14397,4.11111l-0.22103,0.19892l0,0.44206l4.11111,-0.22103l0.64098,0q2.16607,0 2.58602,1.08303l0,0l0,0.64098q-1.06093,1.08303 -1.06093,2.16607l0,0q1.06093,0.86201 2.58602,0.86201l0,0q0.64098,0 0.64098,-0.86201l0,0l0.22103,-7.11709l-0.22103,-0.66308l-0.64098,0q-1.30406,0.86201 -8.64218,3.47013l0,0zm35.62963,-2.16607l0,0l0.19892,0.22103l0,0.19892q1.94504,-0.64098 1.94504,-1.06093l0,0l0,-0.44206l-0.41995,0q-1.72401,0.44206 -1.72401,1.08303zm-43.60873,0.22103l0,0l0,0.19892q0,0.66308 1.08303,1.08303l0,0q1.72401,0 3.89008,-1.94504l0,0l0,-0.19892l-3.47013,0q-1.50299,0.19892 -1.50299,0.86201zm74.46417,3.44803l0,0q0,0.86201 3.89008,1.28196l0,0q0.86201,-0.64098 0.86201,-1.72401q0,-1.06093 -3.44803,-1.72401l0,0q-1.30406,0.86201 -1.30406,2.16607zm-43.60873,1.72401l0,0l0,0.86201q3.02808,0 6.47611,-3.89008l0,0l0,-0.19892l-0.19892,-0.22103l-0.22103,0q-2.58602,0 -6.05615,3.44803zm52.89188,-3.02808l-1.08303,0l-0.64098,0.86201q0.41995,1.08303 1.72401,1.08303l0,0l1.08303,0l1.08303,-0.86201l0,-0.22103q-0.22103,-0.86201 -2.16607,-0.86201l0,0zm-25.04242,2.16607l0,0l0,0.41995l1.08303,0q3.227,-0.41995 3.227,-1.28196l0,0l0,-0.44206l-1.50299,0q-2.80705,0.22103 -2.80705,1.30406zm-35.3865,-1.08303l0,0l-1.08303,0l-0.44206,1.30406l0,3.89008q0,2.58602 -0.86201,3.44803l0,0l0,1.08303l0.86201,3.00597l0,1.72401q0,1.74612 1.08303,2.3871l0,0q0.22103,0 1.30406,-4.97312l0,0q3.00597,-2.36499 3.00597,-3.66906l0,0q0,-1.08303 -2.36499,-4.75209l0,0q-0.64098,-3.44803 -1.50299,-3.44803zm-21.59439,3.44803l0,0l0,0.44206l2.16607,0l0.86201,-0.86201l0,-0.22103l-1.08303,-0.41995q-1.94504,0.64098 -1.94504,1.06093zm76.85127,1.30406l0.41995,-0.64098l-1.28196,-0.66308l-0.44206,0.44206l0,0.22103l1.08303,0.64098l0.22103,0zm-16.20132,0.86201l0,0l0.44206,0.44206l0.19892,0q4.75209,0 4.75209,-0.86201l0,0l-1.72401,-0.44206q-3.66906,0.44206 -3.66906,0.86201zm-31.2975,8.42115l0,0l0,0.64098q5.6141,-0.64098 15.53823,-9.28316l0,0l0,-0.19892l-1.28196,0q-0.86201,0 -5.19415,3.00597l0,0q-9.06213,2.80705 -9.06213,5.83513zm51.58782,-8.42115l0,0l-0.22103,0l0,0.64098q0,0.66308 2.80705,6.05615l0,0q0,1.72401 0.86201,1.72401l0,0l0.86201,-0.86201l0,-0.86201q0,-3.44803 -4.31004,-6.69713zm-67.12606,2.58602l0,0l0.44206,0.66308l0.41995,0l0.64098,-2.80705l-0.64098,0q-0.64098,0 -0.86201,2.14397zm54.39487,1.52509l0,0l0,0.64098l5.39307,0l0.86201,-0.64098l0,-0.86201l-1.08303,-0.66308l-1.06093,0q-4.11111,0.66308 -4.11111,1.52509zm-21.37336,3.44803l0,0q4.75209,-0.86201 4.75209,-2.3871l0,0l-0.64098,-0.41995l-0.66308,0q-3.227,0 -3.44803,2.80705zm-6.89606,2.58602l0,0l0,0.44206l0.64098,0q3.44803,-2.80705 3.44803,-4.75209l0,0l-0.41995,0l0,-0.44206q-1.72401,0 -3.66906,4.75209zm-16.62127,-2.16607l0,0l0.41995,1.30406q0,1.72401 -1.94504,3.44803l0,0q1.08303,1.08303 1.08303,2.16607l0,0q0,10.78614 1.52509,10.78614l0,0l0.19892,0q1.72401,-3.89008 1.72401,-10.14516l0,0q-0.19892,-7.97909 -1.92294,-8.42115l0,0l-0.44206,0q-0.64098,0 -0.64098,0.86201zm60.87098,2.80705l0,0l0,0.66308q2.58602,9.70311 3.227,10.14516l0,0l0.44206,-1.52509l0,-1.94504q-1.52509,-7.33811 -3.66906,-7.33811zm9.70311,0.44206l0,0l-0.22103,0q0.44206,11.42712 2.16607,11.42712l0,0l0.41995,0q-1.06093,-11.42712 -2.36499,-11.42712zm-55.89786,0.41995l-0.66308,0l-1.28196,1.74612l0,0.41995l0.22103,0.44206l1.06093,0l0.66308,-2.60812zm-6.25508,2.16607l-0.44206,0l-0.41995,0.44206l0.41995,0.64098l0.86201,0l0,-0.64098l-0.41995,-0.44206zm60.64995,25.46237l0,0l0,0.22103l0.64098,2.58602l1.08303,0q-0.22103,-2.80705 -1.72401,-2.80705zm-8.20012,15.56034l0,0l0.19892,0.19892l0.22103,0q0.64098,0 0.64098,-2.14397l0,0l0,-2.60812q-0.86201,0 -1.06093,4.55317zm-1.30406,3.44803l0,0q1.30406,1.50299 1.30406,4.08901l0,0l0.41995,0l0.64098,-2.58602l0,-3.66906q-2.36499,0 -2.36499,2.16607zm9.50418,-0.86201l0,-1.08303l-0.44206,0l0,1.08303l0.44206,0zm4.95102,0l0,0l-0.41995,4.31004l0,5.39307l0.22103,0q2.80705,-3.44803 2.80705,-6.47611l0,0l0,-0.22103q0,-3.00597 -2.60812,-3.00597zm-5.6141,9.92414l0,0l0,0.41995l0.22103,0l0.86201,-2.36499l0,-0.44206l-0.41995,0q-0.66308,0 -0.66308,2.3871zm-80.94027,0.86201l-2.36499,0l-0.44206,0.86201l0,0.22103q0.44206,3.89008 2.80705,3.89008l0,0l1.30406,0l0.64098,-0.66308l0,-0.41995q-1.94504,-2.3871 -1.94504,-3.89008l0,0zm82.24434,3.89008l-0.64098,-0.86201l-0.86201,0l0,0.86201l0.86201,0.86201l0.64098,-0.44206l0,-0.41995zm11.00717,4.08901l0,0l0,0.66308q9.72521,0 9.72521,-1.52509l0,0l0,-0.41995l-3.02808,0q-6.69713,0.19892 -6.69713,1.28196zm-86.55437,2.16607l0,0q0,1.08303 5.6141,1.08303l0,0q10.78614,0 10.78614,-1.08303l0,0q0,-1.30406 -7.33811,-1.30406l0,0q-8.20012,0 -9.06213,1.30406zm59.36799,1.72401l-0.86201,-1.08303l-0.66308,0l0,1.30406l0.66308,0.64098l0.64098,0l0.22103,-0.64098l0,-0.22103zm29.13143,0.64098l0,0l0,0.66308q0.41995,1.08303 1.94504,1.08303l0,0q3.44803,0 4.08901,-1.52509l0,0l0,-0.64098q-0.41995,-1.30406 -2.36499,-1.30406l0,0l-1.08303,0q-2.16607,0 -2.58602,1.72401zm-25.26344,3.89008l0,0q0.66308,1.72401 2.16607,1.72401l0,0q11.64815,-0.19892 11.64815,-1.50299l0,0q-1.50299,-1.94504 -5.39307,-1.94504l0,0q-8.42115,0.22103 -8.42115,1.72401zm-4.53106,4.11111l-0.86201,0l-0.86201,0.86201l0,0.41995q0,1.52509 5.83513,1.52509l0,0l1.08303,0l1.72401,-0.44206l0,-0.22103q-2.16607,-2.14397 -6.91816,-2.14397l0,0zm94.98726,-176.57888l0,0q4.72999,0 7.75807,2.60812l0,0q-2.58602,6.89606 -3.44803,21.79331l0,0l-1.94504,19.84827q0,1.52509 8.64218,1.52509l0,0q25.46237,0 25.46237,2.36499l0,0q1.08303,0 2.58602,1.30406l0,0q-2.14397,2.80705 -2.14397,4.08901l0,0l0,0.66308l0.64098,4.31004l-2.80705,9.50418q0,1.50299 3.227,4.31004l0,0l0,0.41995q-5.17204,1.74612 -8.39905,1.74612l0,0q-3.47013,-0.22103 -3.47013,-1.08303l0,0l0,-0.44206l1.94504,-0.22103l1.52509,0l0.86201,-0.86201l0,-0.41995l-0.86201,-0.22103l-14.4773,0.22103l-11.86918,-0.22103q-1.08303,0 -2.36499,12.0902l0,0l-0.22103,0l-3.02808,-3.44803l-0.64098,2.36499l0,1.30406q0.22103,6.03405 1.50299,6.47611l0,0q0.86201,0 1.52509,-3.89008l0,0l0,-1.50299l0.64098,0l0.22103,0.64098l-1.52509,20.71028q2.60812,44.69176 4.53106,44.69176l0,0q1.08303,6.89606 5.41517,6.89606l0,0q2.36499,1.52509 5.81302,1.52509l0,0l3.89008,0l12.95221,-0.66308q0.41995,0 1.50299,11.44923l0,0q0.44206,3.44803 -1.39247,5.06153q-1.83453,1.6356 -6.14456,1.6356l0,0l-16.62127,0.41995q-13.61529,0 -22.89845,-7.55914l0,0q-6.03405,-2.14397 -6.03405,-12.93011l0,0q-0.44206,-5.83513 -1.50299,-34.5466l0,0l2.58602,-29.35245l0.64098,-12.73118l0,-1.72401q-1.50299,-9.08423 -5.17204,-9.08423l0,0l-6.47611,0l-7.55914,0q-3.2491,0 -6.47611,1.52509l0,0q-2.16607,-0.22103 -5.39307,-5.83513l0,0l4.31004,-19.20729q0,-0.86201 26.12545,-1.08303l0,0q0,-2.80705 3.02808,-7.11709l0,0q0.86201,-33.68459 2.36499,-33.68459l0,0l0,-0.64098q0,-0.41995 -1.08303,-0.41995l0,0l0,-0.66308q0,-0.64098 14.25627,-1.94504zm-7.78017,6.27718l-0.41995,-0.44206l-0.22103,0l0,1.30406l0.64098,0l0,-0.86201zm11.00717,0l-2.16607,0l-0.86201,0.86201l0,0.41995l0.66308,4.97312l0.41995,0q2.58602,-2.58602 2.58602,-4.53106l0,0l0,-0.86201l-0.64098,-0.86201zm-9.92414,10.14516l0,-2.16607l-0.64098,-0.64098q-0.44206,2.14397 -0.44206,5.6141l0,0l0,0.86201l0.44206,0l0.64098,-3.66906zm0.64098,6.89606l0,0l-0.41995,0l-0.86201,21.37336l0,0.22103l0.64098,0.64098l0.41995,0q1.52509,0 1.52509,-5.39307l0,0l0,-4.97312l-0.44206,-10.56512q-0.41995,-1.30406 -0.86201,-1.30406zm-37.33155,24.82139l0,0q0,1.52509 1.94504,1.52509l0,0l3.227,0q8.8632,0 16.40024,-0.88411l0,0l0,-0.41995q0,-1.08303 -10.56512,-1.08303l0,0l-9.06213,0q-1.94504,0 -1.94504,0.86201zm69.49105,-0.86201l-2.14397,0l-2.80705,1.08303l-2.60812,0l-3.66906,0l0,0.64098q4.75209,1.30406 8.22222,1.30406l0,0l4.95102,0q0.44206,0 0.44206,-0.64098l0,0q-0.44206,-2.3871 -2.3871,-2.3871l0,0zm6.25508,2.16607l-2.36499,0l-0.64098,0.41995l0,0.44206l0.64098,0.22103q2.16607,0 2.36499,-0.86201l0,0l0,-0.22103zm-69.9331,2.80705l-2.36499,0l-0.44206,0.41995l0,1.30406q0,2.14397 14.4773,2.14397l0,0q7.33811,0 7.33811,-1.06093l0,0q0,-2.60812 -19.00837,-2.80705l0,0zm45.11172,1.94504l-1.50299,0l-0.64098,0.64098l0,0.22103q0,1.06093 7.75807,1.28196l0,0l3.66906,-0.22103l4.97312,0.88411l0.86201,0q1.50299,0 1.50299,-1.30406l0,0l-0.19892,0l-16.42234,-1.50299zm24.62246,4.72999l-2.80705,0l-0.86201,0.88411l0,0.19892l0.86201,0.66308l1.08303,0q1.92294,0 2.36499,-1.30406l0,0l-0.64098,-0.44206zm-68.20909,0.88411l-1.94504,0l-0.86201,0.64098q0,0.86201 1.08303,0.86201l0,0l5.39307,0.22103l5.81302,-0.22103l0.22103,-0.22103l0,-0.41995q-2.58602,-0.86201 -9.70311,-0.86201l0,0zm15.31721,4.72999l-0.41995,-0.64098l-17.7043,-0.64098l0,0.41995q0,1.52509 16.40024,1.52509l0,0l1.72401,-0.44206l0,-0.22103zm30.43549,0l0,0l-1.08303,0l0,0.66308q0.22103,0.41995 7.55914,2.14397l0,0l0.44206,0l0,-0.41995q-3.47013,-2.3871 -6.91816,-2.3871zm11.00717,2.16607l0,0q5.83513,1.94504 10.36619,1.94504l0,0l0.86201,-0.86201l0,-1.30406l-0.64098,-0.64098l-4.75209,0q-5.83513,0 -5.83513,0.86201zm-29.99343,7.78017l0,0l0,1.72401l0.64098,0.64098q0.86201,-0.22103 0.86201,-1.50299l0,0l0,-0.86201l-0.41995,-1.52509l-0.22103,0q-0.86201,0.22103 -0.86201,1.52509zm7.97909,4.53106l0,-0.66308l-1.08303,-0.86201l0,0.66308l0.86201,0.86201l0.22103,0zm-6.47611,0.19892l-0.41995,-0.41995l-0.44206,0l-0.22103,1.08303l0,1.08303l0.22103,1.28196l0.86201,0l0,-1.94504l0,-1.08303zm0.44206,16.20132l-0.44206,-1.72401l-0.64098,0l0,1.72401l0.64098,0.86201l0.44206,0l0,-0.86201zm-10.80825,25.6834l0,0l0.66308,6.03405l-0.22103,7.55914l0.22103,2.16607l0.64098,0q1.30406,0 1.30406,-10.14516l0,0l0,-4.97312q0,-9.92414 -0.88411,-9.92414l0,0q-1.50299,0 -1.72401,9.28316zm14.03525,17.04122l0,0l-0.41995,0l-0.22103,1.52509l0,1.72401q0,1.50299 0.86201,1.72401l0,0l0.41995,0q0.86201,-0.22103 0.86201,-1.50299l0,0q-0.19892,-3.47013 -1.50299,-3.47013zm1.72401,9.28316l0,0l-0.86201,2.3871q0,4.95102 2.16607,6.25508l0,0l0.41995,-0.86201l0,-1.94504q-0.19892,-5.39307 -1.72401,-5.83513zm-7.97909,1.94504l-0.44206,-0.41995l-0.64098,0l0,3.227l0.44206,1.30406l0.19892,0l0.44206,-0.44206l0,-3.66906zm5.83513,13.17324l0,0l0,0.22103l0,1.28196q0.19892,0.86201 1.50299,1.72401l0,0l1.50299,0l0,-0.41995q0,-2.3871 -3.00597,-2.80705zm23.95938,4.31004l0,0l0.86201,0q7.97909,-1.28196 7.97909,-2.80705l0,0l-0.44206,-0.41995q-8.39905,2.14397 -8.39905,3.227zm-26.34648,0.86201l-3.02808,-3.86798l-0.41995,0l0,0.86201q0.64098,5.39307 4.75209,5.39307l0,0l2.14397,0l0.44206,-0.66308l0,-0.19892q0,-0.44206 -3.89008,-1.52509l0,0z" data-uid="o_ejghiajak_11" font-style="normal" font-weight="400" y="0" x="0" font-scale="contain" font-family="Love Ya Like A Sister" space="preserve" dy="0" dx="0" offset="0.5" side="left" letter-spacing="0" font-size="100" text-anchor="middle" text="iRent" fill="#cf1717" id="_xjtvd-YgT5-MwmX5HN6f_"/>
 </g>
</svg>