<svg width="517" height="115" xmlns="http://www.w3.org/2000/svg" class="fl-svgdocument">

 <g>
  <title>Layer 1</title>
  <path fill="#2196f3" d="m89.06719,10.27947c-1.9731,-1.12041 -3.9462,-2.24083 -5.91931,-3.36124c-18.65195,-8.45638 -34.53092,-6.85557 -49.09364,-0.47639c2.27846,8.44756 4.83399,18.04549 7.36785,27.23521c1.09807,3.98678 3.62159,8.4707 0.26861,12.54845c8.40033,1.09978 7.0804,7.98486 7.23801,13.67845c0.14441,5.1922 0.1038,10.13038 5.64199,13.42416c-7.52828,0.34663 -15.7811,-5.50912 -19.61803,-11.79199c-2.44641,-4.00765 -4.99179,-9.95565 0.45632,-13.44081c-5.42695,-0.6226 -5.64968,-5.90239 -6.6881,-9.66976c-2.18901,-7.94468 -4.71725,-17.19262 -6.93731,-24.16451c-7.35631,5.77791 -13.78634,15.12492 -17.10451,23.99421c-3.31047,8.84884 -3.77558,18.05512 -3.05088,25.67004c1.54655,16.24146 9.85134,31.56182 26.71319,42.57009c1.04237,0.59191 2.08277,1.18269 3.12515,1.7746c9.32997,4.66295 18.67408,6.68933 26.16991,6.37916c-6.42154,-4.69957 -14.53049,-6.86473 -15.32783,-12.83536c-0.69953,-5.24087 4.46059,-10.31509 5.65631,-15.70667c1.20842,-5.43925 -1.32198,-9.60043 -6.90843,-13.49261c5.73507,3.0345 11.86109,3.57192 14.72887,8.14681c2.1445,3.42332 0.60407,7.82735 1.25082,11.58267c0.45146,2.62657 2.2117,6.59084 5.48799,8.33628c5.29055,2.81867 10.80159,-0.53799 16.20686,-0.58362c3.90961,-0.03257 7.70064,1.736 12.04329,4.4476c7.3875,-5.50149 14.45878,-13.02096 19.0073,-23.13193c4.21693,-9.37287 5.33377,-19.02049 4.89908,-27.01036c-0.9096,-16.73038 -8.75539,-32.2631 -25.61348,-44.12246z" clip-rule="evenodd" fill-rule="evenodd" id="_KzdBO1f76OjuiobZBoEEX"/>
  <path d="m161.46009,80.81224l-12.67947,-35.18862q-1.69335,-3.86166 -3.18019,-5.3072q-1.48684,-1.42489 -4.35728,-1.8379l0,0q-0.30976,-0.0826 -1.09448,-0.18586q-0.78472,-0.10325 -0.99123,-0.49561q-0.20651,-0.39236 -0.20651,-1.38359l0,0q0,-1.19773 0.66082,-1.48684q0.64017,-0.30976 1.56945,-0.35106q0.94993,-0.06195 1.23904,-0.06195l0,0q6.05063,-0.28911 9.51993,1.73465q3.4693,2.04441 5.76152,7.10381l0,0l9.10691,25.66869l0.30976,0q3.05629,-9.51993 9.60253,-34.09414l0,0l4.77029,0l13.56744,34.09414l0.30976,0q1.6727,-5.16265 3.26279,-11.75019q1.5901,-6.58754 1.8792,-7.57877l0,0l1.7966,-7.04185q0.28911,-1.19773 0.28911,-1.98246l0,0q0,-1.38359 -0.88798,-1.8379q-0.88798,-0.43366 -3.18019,-0.43366l0,0l-0.59887,0q-0.78472,0 -1.13578,-0.30976q-0.35106,-0.28911 -0.43366,-1.48684l0,0q0,-0.68147 0.33041,-1.34229q0.35106,-0.64017 1.05318,-0.64017l0,0q5.63761,0.30976 9.70578,0.30976l0,0q2.47807,0 8.32219,-0.30976l0,0q0.70212,0 1.09448,0.64017q0.39236,0.66082 0.39236,1.34229l0,0q-0.0826,1.19773 -0.49561,1.48684q-0.39236,0.30976 -1.17708,0.30976l0,0q-4.06817,0 -6.09193,1.23904q-2.04441,1.23904 -2.93239,4.60508l0,0l-11.00677,36.57221l-5.84412,0l-12.59687,-32.42144l-9.80903,32.42144l-5.84412,0zm80.09128,0.20651q-7.43422,0 -12.63817,-3.18019q-5.20395,-3.18019 -7.88853,-8.63195q-2.66393,-5.45176 -2.66393,-12.0806l0,0q0,-5.84412 2.72588,-11.25458q2.72588,-5.41046 7.78528,-8.7765q5.03875,-3.36605 11.58499,-3.36605l0,0q8.81781,0 13.58809,4.50183q4.74964,4.52248 5.45176,12.14255l0,0q0,3.28345 -1.7966,4.46053q-1.77595,1.19773 -5.142,1.19773l0,0l-24.09925,0q0,9.21017 3.82036,14.62062q3.82036,5.41046 11.85344,5.41046l0,0q4.25402,0 7.22771,-1.8379q2.97369,-1.8379 5.65826,-6.19518l0,0q0.49561,-0.49561 0.99123,-0.49561l0,0q0.68147,0 1.17708,0.39236l0,0q0.99123,0.59887 0.99123,1.77595l0,0q0,0.59887 -0.18586,0.90863l0,0q-3.07694,4.95614 -7.78528,7.68202q-4.70834,2.72588 -10.65571,2.72588l0,0zm-13.09248,-28.74563l16.16942,0q5.0594,0 5.34851,-4.17142l0,0q0,-4.56378 -2.47807,-7.72332q-2.47807,-3.18019 -7.04185,-3.18019l0,0q-5.0594,0 -8.32219,4.00622q-3.26279,4.02687 -3.67581,11.06872l0,0zm45.21655,28.93149q-0.90863,0 -1.40424,-0.53692q-0.49561,-0.55757 -0.49561,-1.44554l0,0l0,-57.88363q0,-2.58132 -0.14455,-3.75841q-0.14455,-1.19773 -1.23904,-2.08571q-1.09448,-0.88798 -3.65516,-0.88798l0,0q-1.19773,0 -1.7966,-0.35106q-0.59887,-0.35106 -0.59887,-1.6314l0,0q0,-0.59887 0.41301,-1.15643q0.39236,-0.53692 1.17708,-0.64017l0,0q6.25713,-0.88798 10.71766,-2.58132l0,0q1.38359,-0.49561 2.27157,-0.57822l0,0l0.28911,0q1.5901,0 1.5901,1.8792l0,0l0,29.92272l0.30976,0q2.87043,-2.87043 6.48429,-4.29532q3.61385,-1.44554 7.18641,-1.44554l0,0q5.84412,0 10.61441,2.97369q4.74964,2.97369 7.47552,8.28089q2.72588,5.3072 2.72588,12.0393l0,0q0,6.64949 -3.11824,12.14255q-3.11824,5.49306 -8.38414,8.67325q-5.24525,3.18019 -11.19262,3.18019l0,0q-8.81781,0 -15.26079,-4.87354l0,0l-0.49561,0q-0.41301,0.80537 -0.90863,2.18896q-0.49561,1.38359 -1.07383,2.12701q-0.59887,0.74342 -1.48684,0.74342l0,0zm18.33773,-3.57255q6.02997,0 9.74708,-5.49306q3.71711,-5.49306 3.71711,-14.72388l0,0q0,-7.72332 -3.5519,-13.23703q-3.57255,-5.49306 -10.61441,-5.49306l0,0q-6.23648,0 -10.51115,4.56378l0,0l0,26.16431q0.30976,1.5901 1.73465,3.5106q1.44554,1.94116 3.86166,3.32475q2.43677,1.38359 5.61696,1.38359l0,0zm60.46082,22.79826q-0.70212,0 -1.09448,-0.57822q-0.39236,-0.59887 -0.39236,-1.40424l0,0q0.10325,-1.28034 0.53692,-1.52814q0.45431,-0.24781 1.73465,-0.24781l0,0q2.37482,0 3.4693,-0.88798q1.09448,-0.88798 1.34229,-2.18896q0.24781,-1.28034 0.24781,-3.65516l0,0l0,-14.57932l-0.28911,0q-2.08571,2.27157 -5.55501,3.96492q-3.4693,1.69335 -7.64072,1.69335l0,0q-5.74087,0 -10.59376,-2.97369q-4.87354,-2.97369 -7.68202,-8.5287q-2.82913,-5.55501 -2.82913,-12.70012l0,0q0,-6.33973 3.15954,-11.64694q3.18019,-5.28655 8.4874,-8.36349q5.3072,-3.07694 11.25458,-3.07694l0,0q4.35728,0 7.26901,1.03253q2.93239,1.05318 4.66704,2.08571q1.73465,1.05318 2.33352,1.34229l0,0l0.49561,0q0.28911,-0.59887 0.99123,-2.12701q0.68147,-1.54879 1.48684,-2.47807q0.78472,-0.94993 1.6727,-0.94993l0,0q0.90863,0 1.40424,0.55757q0.49561,0.53692 0.49561,1.42489l0,0l0,55.32295q0,2.37482 0.18586,3.65516q0.20651,1.30099 1.30099,2.18896q1.07383,0.88798 3.5519,0.88798l0,0l0.59887,0q0.88798,0 1.23904,0.28911q0.35106,0.30976 0.45431,1.48684l0,0q0,0.80537 -0.39236,1.40424q-0.41301,0.57822 -1.19773,0.57822l0,0q-5.84412,-0.28911 -10.4079,-0.28911l0,0q-4.46053,0 -10.30465,0.28911l0,0zm-4.35728,-24.2851q3.26279,0 5.69957,-1.23904q2.41612,-1.23904 4.50183,-3.40735l0,0l0,-26.86643q-0.99123,-2.97369 -3.75841,-5.20395q-2.78783,-2.23026 -7.43422,-2.23026l0,0q-3.77906,0 -6.856,2.51937q-3.05629,2.54002 -4.79094,7.18641q-1.73465,4.66704 -1.73465,10.90352l0,0q0,7.84723 3.5106,13.09248q3.5106,5.24525 10.86222,5.24525l0,0zm50.74265,4.87354q-6.7321,0 -10.69701,-4.06817q-3.96492,-4.06817 -3.96492,-10.71766l0,0l0,-18.33773q0,-2.56067 -0.1652,-3.75841q-0.14455,-1.19773 -1.23904,-2.08571q-1.07383,-0.88798 -3.65516,-0.88798l0,0q-1.19773,0 -1.7966,-0.35106q-0.57822,-0.35106 -0.57822,-1.6314l0,0q0,-0.59887 0.39236,-1.13578q0.39236,-0.55757 1.17708,-0.64017l0,0q6.25713,-0.90863 10.71766,-2.58132l0,0q1.38359,-0.49561 2.27157,-0.59887l0,0l0.30976,0q1.56945,0 1.56945,1.8792l0,0l0,30.04662q0,4.54313 2.89108,6.9799q2.87043,2.43677 6.62884,2.43677l0,0q4.66704,0 7.92983,-2.29222q3.28345,-2.27157 4.35728,-4.56378l0,0l0,-20.8158q0,-2.56067 -0.14455,-3.75841q-0.14455,-1.19773 -1.23904,-2.08571q-1.09448,-0.88798 -3.65516,-0.88798l0,0q-1.19773,0 -1.7966,-0.35106q-0.59887,-0.35106 -0.59887,-1.6314l0,0q0,-0.59887 0.41301,-1.13578q0.39236,-0.55757 1.17708,-0.64017l0,0q6.25713,-0.90863 10.71766,-2.58132l0,0q1.38359,-0.49561 2.27157,-0.59887l0,0l0.28911,0q1.5901,0 1.5901,1.8792l0,0l0,34.30064q0,5.84412 7.82658,5.84412l0,0q1.69335,0 1.69335,1.8792l0,0q0,1.40424 -1.69335,1.69335l0,0l-15.94226,1.09448q-0.70212,0 -0.80537,-0.45431q-0.10325,-0.43366 -0.10325,-1.52814l0,0l0,-5.55501l-0.18586,0q-2.87043,2.68458 -4.66704,4.10947q-1.77595,1.44554 -4.60508,2.47807q-2.82913,1.05318 -6.69079,1.05318l0,0zm40.14063,-0.90863q-0.68147,0 -1.13578,-0.57822q-0.45431,-0.59887 -0.45431,-1.40424l0,0q0.10325,-1.28034 0.59887,-1.52814q0.49561,-0.24781 1.7966,-0.24781l0,0q2.56067,0 3.65516,-0.88798q1.09448,-0.88798 1.23904,-2.08571q0.14455,-1.19773 0.14455,-3.75841l0,0l0,-22.71566q0,-2.56067 -0.14455,-3.75841q-0.14455,-1.19773 -1.23904,-2.08571q-1.09448,-0.88798 -3.65516,-0.88798l0,0q-1.19773,0 -1.7966,-0.35106q-0.59887,-0.35106 -0.59887,-1.6314l0,0q0,-0.59887 0.41301,-1.13578q0.39236,-0.55757 1.17708,-0.64017l0,0q6.25713,-0.90863 10.71766,-2.58132l0,0q1.38359,-0.49561 2.27157,-0.59887l0,0l0.28911,0q1.5901,0 1.5901,1.8792l0,0l0,34.50715q0,2.56067 0.20651,3.75841q0.18586,1.19773 1.28034,2.08571q1.09448,0.88798 3.67581,0.88798l0,0l0.59887,0q0.78472,0 1.17708,0.28911q0.39236,0.30976 0.49561,1.48684l0,0q0,0.80537 -0.39236,1.40424q-0.39236,0.57822 -1.19773,0.57822l0,0q-5.74087,-0.28911 -10.4079,-0.28911l0,0q-4.46053,0 -10.30465,0.28911l0,0zm9.80903,-57.88363q-2.76718,0 -4.64638,-1.73465q-1.8792,-1.73465 -1.8792,-4.31598l0,0q0,-2.27157 2.27157,-4.04752q2.27157,-1.7966 5.16265,-1.7966l0,0q2.47807,0 4.04752,1.73465q1.5901,1.73465 1.5901,4.41923l0,0q0,2.37482 -1.8792,4.06817q-1.8792,1.6727 -4.66704,1.6727l0,0zm18.54011,57.88363q-0.68147,0 -1.13578,-0.57822q-0.45431,-0.59887 -0.45431,-1.40424l0,0q0.10325,-1.28034 0.55757,-1.52814q0.43366,-0.24781 1.73465,-0.24781l0,0q2.58132,0 3.65516,-0.88798q1.09448,-0.88798 1.30099,-2.08571q0.18586,-1.19773 0.18586,-3.75841l0,0l0,-48.38435q0,-2.58132 -0.14455,-3.75841q-0.14455,-1.19773 -1.23904,-2.08571q-1.09448,-0.88798 -3.65516,-0.88798l0,0q-1.19773,0 -1.7966,-0.35106q-0.59887,-0.35106 -0.59887,-1.6314l0,0q0,-0.59887 0.41301,-1.13578q0.39236,-0.55757 1.17708,-0.66082l0,0q6.25713,-0.88798 10.71766,-2.56067l0,0q1.38359,-0.49561 2.27157,-0.59887l0,0l0.28911,0q1.5901,0 1.5901,1.8792l0,0l0,60.17585q0,2.56067 0.20651,3.75841q0.18586,1.19773 1.28034,2.08571q1.09448,0.88798 3.67581,0.88798l0,0l0.59887,0q0.78472,0 1.17708,0.28911q0.39236,0.30976 0.49561,1.48684l0,0q0,0.80537 -0.39236,1.40424q-0.39236,0.57822 -1.19773,0.57822l0,0q-5.74087,-0.28911 -10.4079,-0.28911l0,0q-4.46053,0 -10.30465,0.28911l0,0zm28.34914,0q-0.68147,0 -1.13578,-0.57822q-0.45431,-0.59887 -0.45431,-1.40424l0,0q0.10325,-1.28034 0.55757,-1.52814q0.43366,-0.24781 1.73465,-0.24781l0,0q2.58132,0 3.65516,-0.88798q1.09448,-0.88798 1.30099,-2.08571q0.18586,-1.19773 0.18586,-3.75841l0,0l0,-48.38435q0,-2.58132 -0.14455,-3.75841q-0.14455,-1.19773 -1.23904,-2.08571q-1.09448,-0.88798 -3.65516,-0.88798l0,0q-1.19773,0 -1.7966,-0.35106q-0.59887,-0.35106 -0.59887,-1.6314l0,0q0,-0.59887 0.41301,-1.13578q0.39236,-0.55757 1.17708,-0.66082l0,0q6.25713,-0.88798 10.71766,-2.56067l0,0q1.38359,-0.49561 2.27157,-0.59887l0,0l0.28911,0q1.5901,0 1.5901,1.8792l0,0l0,60.17585q0,2.56067 0.20651,3.75841q0.18586,1.19773 1.28034,2.08571q1.09448,0.88798 3.67581,0.88798l0,0l0.59887,0q0.78472,0 1.17708,0.28911q0.39236,0.30976 0.49561,1.48684l0,0q0,0.80537 -0.39236,1.40424q-0.39236,0.57822 -1.19773,0.57822l0,0q-5.74087,-0.28911 -10.4079,-0.28911l0,0q-4.46053,0 -10.30465,0.28911l0,0z" id="_eh1nj5kb7_2" fill="#000000"/>
 </g>
</svg>